<?xml version="1.0" encoding="UTF-8"?>
<svg version="1.1" xmlns="http://www.w3.org/2000/svg" width="600" height="400">
<path d="M0 0 C0.66 0 1.32 0 2 0 C2.20753906 0.6290625 2.41507813 1.258125 2.62890625 1.90625 C8.43920029 18.04865688 22.9771717 25.70477704 37.0625 34 C64.90942608 50.44546859 64.90942608 50.44546859 70 66 C70.47769497 68.6769837 70.76189899 71.28564853 71 74 C71.825 73.5153125 72.65 73.030625 73.5 72.53125 C77.44831462 70.80386236 80.76891975 70.4843583 85 70.5 C85.66644531 70.47164063 86.33289063 70.44328125 87.01953125 70.4140625 C100.72479571 70.36320809 113.49428481 78.64613184 125.125 85.0625 C143.09293752 95.33893699 143.09293752 95.33893699 163.25 98.25 C164.00667969 98.23195313 164.76335937 98.21390625 165.54296875 98.1953125 C167.36256085 98.14924688 169.18147841 98.07756727 171 98 C170.61328125 98.44988281 170.2265625 98.89976563 169.828125 99.36328125 C158.42994976 113.44172047 159.05809458 131.37330492 158.5625 148.625 C157.54159332 181.56974961 157.54159332 181.56974961 146.90234375 192.0703125 C141.86686047 196 141.86686047 196 139 196 C139 196.66 139 197.32 139 198 C139.680625 198.165 140.36125 198.33 141.0625 198.5 C148.37932843 202.23625282 151.73326613 208.75690219 154.2734375 216.2890625 C155.6944333 221.5910576 156.14006615 226.6927115 156.24609375 232.171875 C156.27736549 233.56438045 156.30903717 234.95687696 156.34106445 236.34936523 C156.35642242 237.06889374 156.3717804 237.78842224 156.38760376 238.52975464 C155.88217765 267.20590905 155.88217765 267.20590905 168 292 C168 292.66 168 293.32 168 294 C167.175 293.835 166.35 293.67 165.5 293.5 C148.50898416 291.07271202 134.18243451 300.06924112 119.734375 307.82421875 C89.54240834 323.98664156 89.54240834 323.98664156 72.5234375 318.9765625 C71.69070313 318.65429688 70.85796875 318.33203125 70 318 C69.95875 319.299375 69.9175 320.59875 69.875 321.9375 C68.99931265 329.88123528 63.76060959 335.7880199 58 341 C57.46914795 341.50136475 56.9382959 342.00272949 56.39135742 342.51928711 C50.94606835 347.5143383 45.04749762 351.2131677 38.6875 354.9375 C30.82577696 359.63044515 23.20334783 364.33224958 16 370 C15.41734375 370.42023438 14.8346875 370.84046875 14.234375 371.2734375 C8.15095526 375.85136447 3.88053545 382.66591174 2 390 C1.34 390 0.68 390 0 390 C-0.20753906 389.3709375 -0.41507813 388.741875 -0.62890625 388.09375 C-6.43920029 371.95134312 -20.9771717 364.29522296 -35.0625 356 C-63.03450378 339.48066469 -63.03450378 339.48066469 -68 324 C-68.1875 320.5625 -68.1875 320.5625 -68 318 C-69.25296875 318.48146484 -69.25296875 318.48146484 -70.53125 318.97265625 C-89.67872091 324.64358513 -106.55743998 313.93817182 -122.8515625 305.25390625 C-127.02196829 303.03704832 -131.20372014 300.8472022 -135.4140625 298.70703125 C-136.34943848 298.23112549 -137.28481445 297.75521973 -138.24853516 297.26489258 C-147.48728398 293.01769137 -156.04136723 292.00827345 -166 294 C-164.71166968 291.29866223 -163.2653012 288.89356528 -161.5625 286.4375 C-154.7682717 275.57475151 -155.03801685 262.34289132 -154.7890625 249.93359375 C-154.7746814 249.24046585 -154.76030029 248.54733795 -154.7454834 247.83320618 C-154.68859607 244.98562241 -154.63360477 242.13823114 -154.59863281 239.2902832 C-154.43571478 226.98014079 -154.07740704 212.35881488 -145.03515625 202.95703125 C-139.56362275 198 -139.56362275 198 -137 198 C-137 197.34 -137 196.68 -137 196 C-138.0828125 195.62875 -138.0828125 195.62875 -139.1875 195.25 C-147.07366949 191.74503578 -149.99526857 185.73263738 -153 178 C-156.21346209 167.2181523 -156.34317855 156.25960061 -156.6640625 145.08959961 C-157.25995981 119.79326022 -157.25995981 119.79326022 -169 98 C-167.93523437 98.05800781 -166.87046875 98.11601563 -165.7734375 98.17578125 C-164.30733641 98.22277167 -162.84118671 98.26826161 -161.375 98.3125 C-160.68148437 98.35439453 -159.98796875 98.39628906 -159.2734375 98.43945312 C-145.40984676 98.74890828 -132.62232878 90.4182009 -120.875 83.9375 C-95.93994375 70.18772334 -95.93994375 70.18772334 -83.125 70.5625 C-82.06539062 70.55186523 -82.06539062 70.55186523 -80.984375 70.54101562 C-76.27638895 70.5978965 -73.03585395 71.61517721 -69 74 C-68.92523438 73.31035156 -68.85046875 72.62070313 -68.7734375 71.91015625 C-67.14493058 60.27112149 -60.92114869 52.42210321 -52 45 C-45.17162743 40.07760521 -37.91174801 35.77506177 -30.73046875 31.39453125 C-10.94161962 19.56254365 -10.94161962 19.56254365 0 0 Z " fill="#F59B24" transform="translate(299,5)"/>
<path d="M0 0 C16.22890462 13.98366828 28.21112463 33.97554405 30.91015625 55.46875 C32.54262215 82.37524088 28.25940082 106.37378588 10.078125 127.12109375 C9.36269531 127.89582031 8.64726562 128.67054688 7.91015625 129.46875 C6.97623047 130.52255859 6.97623047 130.52255859 6.0234375 131.59765625 C-7.36115909 145.93629117 -28.1470422 156.69577385 -47.86181641 157.59521484 C-77.80521672 158.33403519 -100.93629744 151.75700347 -123.15234375 130.84375 C-140.95402551 112.56772876 -147.59651905 89.97497028 -147.44384766 64.96704102 C-146.93615985 40.23616396 -136.30153083 18.83161594 -118.6171875 1.69140625 C-84.77696183 -28.06916315 -34.68579993 -28.41516859 0 0 Z " fill="#F49820" transform="translate(358.08984375,131.53125)"/>
<path d="M0 0 C1.01191406 0.17144531 2.02382813 0.34289062 3.06640625 0.51953125 C32.68201646 6.26473723 60.4525327 26.02036756 77.58569336 50.61279297 C96.35456543 78.83060564 103.31786151 112.736201 96.90429688 146.0168457 C94.9578892 155.1133722 91.91049597 163.57401673 88 172 C87.66339355 172.72558105 87.32678711 173.45116211 86.97998047 174.19873047 C75.12980331 199.15432986 55.77712907 218.7686951 31 231 C29.97261719 231.51304687 28.94523438 232.02609375 27.88671875 232.5546875 C2.90860374 244.58007939 -25.05754886 247.31635525 -52 241 C-53.1653125 240.73316406 -54.330625 240.46632813 -55.53125 240.19140625 C-70.15460826 236.41817734 -83.90525677 230.03097911 -96 221 C-96.82371094 220.39800781 -97.64742187 219.79601562 -98.49609375 219.17578125 C-115.85242993 205.92942548 -128.06918494 189.79542711 -137 170 C-137.47179687 168.9790625 -137.94359375 167.958125 -138.4296875 166.90625 C-150.50714729 138.40044429 -150.59213598 105.38805975 -139.3125 76.6875 C-126.00760862 44.66762399 -102.13865329 19.65547526 -69.94921875 6.2734375 C-47.6881847 -2.57768819 -23.53057524 -4.65863848 0 0 Z M-46 34 C-47.08667969 34.26039062 -48.17335938 34.52078125 -49.29296875 34.7890625 C-62.98180025 38.74238226 -74.47827904 45.40471988 -85 55 C-85.77859375 55.68578125 -86.5571875 56.3715625 -87.359375 57.078125 C-101.69745596 70.42737279 -112.23880513 91.12934433 -113.12402344 110.7487793 C-113.89128813 140.76919445 -107.74041159 163.47265973 -86.8125 185.6875 C-69.60962651 202.33853794 -47.88526339 210.17404028 -24.25 210.1875 C-23.13367188 210.19974609 -22.01734375 210.21199219 -20.8671875 210.22460938 C3.5016418 210.26721222 23.82588399 199.68087655 41.25 183.0625 C58.75629646 164.91572928 65.83580372 142.22180867 65.51953125 117.4465332 C64.70458577 92.90175775 54.29528194 72.35236208 37 55 C19.76881421 39.11226259 -1.08573441 31.78010787 -24.3125 31.6875 C-25.3142627 31.68202148 -26.31602539 31.67654297 -27.34814453 31.67089844 C-33.78470385 31.73263491 -39.74777529 32.48533941 -46 34 Z " fill="#EF870B" transform="translate(324,79)"/>
<path d="M0 0 C0.66 0.33 1.32 0.66 2 1 C1.01 1.7425 0.02 2.485 -1 3.25 C-12.42699298 13.10085601 -18.06464841 28.08657451 -19.22265625 42.8359375 C-19.71943644 59.29448108 -14.22246296 74.96283919 -3 87 C7.99344505 98.4940953 21.79386598 104.8543654 37.64501953 105.34960938 C54.95912753 105.53628439 69.24309049 100.20395089 81.95727539 88.25976562 C86.2948767 83.96236113 89.33351803 79.45913816 92 74 C92.46019531 73.09121094 92.92039062 72.18242187 93.39453125 71.24609375 C100.52980154 56.46148471 100.68646489 41.47572451 95.69775391 25.9296875 C92.71905155 17.69187665 88.162487 10.21576499 82 4 C80.824375 2.7934375 80.824375 2.7934375 79.625 1.5625 C79.08875 1.046875 78.5525 0.53125 78 0 C96.43927039 6.91874893 109.8685266 23.95818415 118.51171875 40.9765625 C127.99275528 62.10247572 127.2100357 85.75534338 119.8671875 107.328125 C115.41531811 118.8263307 108.60588969 128.25209893 100 137 C99.23945313 137.7734375 98.47890625 138.546875 97.6953125 139.34375 C82.34512399 154.03966818 60.95015833 161.75715922 39.8125 162.3125 C15.90955073 161.34346152 -4.28057668 152.74475578 -21 136 C-21.66515625 135.40574219 -22.3303125 134.81148437 -23.015625 134.19921875 C-38.27388129 120.34994558 -44.29052253 98.46092349 -46.34765625 78.65234375 C-47.01818368 57.45784645 -38.87502828 35.34164023 -24.625 19.75 C-17.38311836 12.08031228 -9.7512487 4.40557361 0 0 Z " fill="#F3961E" transform="translate(260,124)"/>
<path d="M0 0 C16.22890462 13.98366828 28.21112463 33.97554405 30.91015625 55.46875 C32.54262215 82.37524088 28.25940082 106.37378588 10.078125 127.12109375 C9.36269531 127.89582031 8.64726562 128.67054688 7.91015625 129.46875 C6.97623047 130.52255859 6.97623047 130.52255859 6.0234375 131.59765625 C-7.36115909 145.93629117 -28.1470422 156.69577385 -47.86181641 157.59521484 C-77.80521672 158.33403519 -100.93629744 151.75700347 -123.15234375 130.84375 C-140.95402551 112.56772876 -147.59651905 89.97497028 -147.44384766 64.96704102 C-146.93615985 40.23616396 -136.30153083 18.83161594 -118.6171875 1.69140625 C-84.77696183 -28.06916315 -34.68579993 -28.41516859 0 0 Z M-100.17578125 1.0390625 C-110.35310079 13.95802731 -115.07004263 28.08278386 -114.08984375 44.46875 C-111.79999893 60.72874902 -103.1439136 73.86023454 -90.77734375 84.28125 C-80.83409943 91.66018394 -70.34287984 93.64723914 -58.27734375 93.65625 C-57.42591797 93.66849609 -56.57449219 93.68074219 -55.69726562 93.69335938 C-40.94058435 93.72707609 -28.9807853 88.07386986 -18.3046875 77.84765625 C-7.77246805 66.5352724 -2.91304821 54.4833151 -2.90234375 39.21875 C-2.89009766 38.31511719 -2.87785156 37.41148437 -2.86523438 36.48046875 C-2.83193724 21.0527983 -8.70625628 9.04726678 -19.421875 -2.08984375 C-30.18514882 -11.93910603 -45.29043328 -18.19165194 -60.0390625 -17.71875 C-75.17344437 -16.33503509 -89.65763753 -10.08506481 -100.17578125 1.0390625 Z M-119.08984375 8.46875 C-120.25 9.60957031 -120.25 9.60957031 -121.43359375 10.7734375 C-136.23572287 26.23456552 -143.62950179 47.09217979 -144.52734375 68.28125 C-143.69164546 93.66558556 -133.04541667 115.90387921 -114.74609375 133.26171875 C-109.67079088 137.85717969 -104.16277345 141.29724542 -98.08984375 144.46875 C-96.73826172 145.18611328 -96.73826172 145.18611328 -95.359375 145.91796875 C-85.45750601 150.7884597 -74.13699097 153.96944391 -63.08984375 154.46875 C-62.37441406 154.5203125 -61.65898437 154.571875 -60.921875 154.625 C-37.43157945 155.56933349 -15.77731297 145.4789465 1.44140625 130.2265625 C16.88984478 115.68405092 26.22738461 95.22319556 27.26171875 74.015625 C27.90542921 49.02756252 20.93659379 28.37119629 4.3984375 9.62109375 C-0.90781842 4.09825596 -6.62663426 -0.43607357 -13.08984375 -4.53125 C-14.41048828 -5.39943359 -14.41048828 -5.39943359 -15.7578125 -6.28515625 C-16.52738281 -6.69636719 -17.29695313 -7.10757813 -18.08984375 -7.53125 C-18.74984375 -7.20125 -19.40984375 -6.87125 -20.08984375 -6.53125 C-18.82140625 -5.603125 -18.82140625 -5.603125 -17.52734375 -4.65625 C-6.56630972 4.52103085 -0.99158126 18.6848386 0.91015625 32.46875 C2.19141519 48.73898338 -2.74015142 63.316657 -12.26171875 76.46875 C-22.20485042 88.03381096 -35.82129768 96.25996296 -51.1640625 97.65771484 C-68.19722034 98.70156102 -83.80102979 94.88398377 -96.87207031 83.47753906 C-109.37170169 72.12747525 -115.82124466 58.60173676 -117.33984375 41.68359375 C-118.08125738 24.46889608 -111.31996538 9.19473276 -100.08984375 -3.53125 C-98.76920248 -4.87715571 -97.43960843 -6.21455305 -96.08984375 -7.53125 C-104.18350941 -7.53125 -113.6757022 3.14250035 -119.08984375 8.46875 Z " fill="#FEF7EF" transform="translate(358.08984375,131.53125)"/>
<path d="M0 0 C2.50673989 2.21808499 4.95547853 4.48502128 7.390625 6.78125 C8.05578125 7.38195312 8.7209375 7.98265625 9.40625 8.6015625 C24.7863495 23.04385106 36.12690875 43.46419659 41.390625 63.78125 C41.58382324 64.50296387 41.77702148 65.22467773 41.97607422 65.96826172 C50.91991828 100.49515036 43.8933872 134.23680739 26.7109375 164.765625 C9.94161524 192.52727812 -18.12528222 212.96816234 -49.42333984 221.24365234 C-83.31084861 229.57739082 -117.64115432 224.48454061 -147.69042969 206.95458984 C-156.45986671 201.59251423 -164.14272365 194.80252215 -171.609375 187.78125 C-172.49496094 186.99234375 -172.49496094 186.99234375 -173.3984375 186.1875 C-196.31902254 164.89634043 -207.71745813 132.34739717 -208.87109375 101.83203125 C-209.70732934 67.57822848 -198.36759351 36.23808876 -174.8046875 11.07421875 C-174.08023438 10.31753906 -173.35578125 9.56085938 -172.609375 8.78125 C-171.92617187 8.03488281 -171.24296875 7.28851563 -170.5390625 6.51953125 C-155.03241554 -9.87402725 -134.30817089 -20.25765302 -112.734375 -26.03125 C-111.962146 -26.23830566 -111.18991699 -26.44536133 -110.39428711 -26.65869141 C-72.16385789 -36.38947719 -29.79083584 -25.33112987 0 0 Z M-166.609375 8.78125 C-167.51558594 9.62429687 -168.42179687 10.46734375 -169.35546875 11.3359375 C-191.89450718 32.90589106 -204.12822421 63.41578453 -205.13330078 94.35546875 C-205.49975615 125.7129153 -194.7800072 156.45034921 -173.609375 179.78125 C-173.1457959 180.29397461 -172.6822168 180.80669922 -172.20458984 181.33496094 C-152.98224393 202.31510249 -127.56622616 215.12701606 -99.609375 219.78125 C-98.50980469 219.966875 -97.41023438 220.1525 -96.27734375 220.34375 C-63.9020101 224.20534464 -31.24511836 214.77777801 -5.609375 194.78125 C19.92003366 173.64108009 37.30550972 144.48105852 41.16357422 111.26904297 C44.04481685 79.69929846 35.76265517 48.10596439 16.390625 22.78125 C12.90143465 18.61159514 9.16326438 14.69320398 5.390625 10.78125 C4.73449219 10.06195313 4.07835937 9.34265625 3.40234375 8.6015625 C-11.35708875 -7.1376182 -32.58237 -17.4716897 -53.296875 -22.46875 C-53.97347168 -22.63213867 -54.65006836 -22.79552734 -55.34716797 -22.96386719 C-95.44186089 -32.03716561 -137.24405264 -19.42062853 -166.609375 8.78125 Z " fill="#FEF8EF" transform="translate(381.609375,102.21875)"/>
</svg>
