<?xml version="1.0" encoding="UTF-8"?>
<svg version="1.1" xmlns="http://www.w3.org/2000/svg" width="820" height="780">
<path d="M0 0 C270.6 0 541.2 0 820 0 C820 257.4 820 514.8 820 780 C549.4 780 278.8 780 0 780 C0 522.6 0 265.2 0 0 Z " fill="#F5F6F6" transform="translate(0,0)"/>
<path d="M0 0 C2.83428666 0.01066159 5.66793045 0.00007497 8.50219727 -0.01269531 C24.78922019 -0.02656661 41.00996598 0.85900144 56.91821289 4.57324219 C58.35668579 4.89808594 58.35668579 4.89808594 59.82421875 5.22949219 C68.09421846 7.14460632 76.14005445 9.51540645 84.16821289 12.26074219 C85.33223633 12.6384375 86.49625977 13.01613281 87.69555664 13.40527344 C96.23047691 16.27584842 104.11455885 19.99870613 112.07104492 24.16503906 C114.22063172 25.28812935 116.37925142 26.3923143 118.53930664 27.49511719 C147.34875072 42.32119858 174.50699604 64.38885214 194.16821289 90.26074219 C194.58490234 90.80102051 195.0015918 91.34129883 195.4309082 91.89794922 C206.75476506 106.62887461 216.40401922 122.37619844 224.16821289 139.26074219 C224.49917969 139.9777832 224.83014648 140.69482422 225.17114258 141.43359375 C236.90774663 167.20919787 244.86267637 195.81189693 245.16821289 224.26074219 C245.18722656 225.32099609 245.20624023 226.38125 245.22583008 227.47363281 C246.2168512 287.61724238 230.8370038 343.22564806 192.16821289 390.26074219 C191.6590332 390.88416504 191.14985352 391.50758789 190.62524414 392.14990234 C180.52999458 404.43483489 169.68717491 415.43166525 157.16821289 425.26074219 C156.09927947 426.13033217 155.03162156 427.00149186 153.96508789 427.87402344 C140.97300167 438.41764447 127.27314326 447.07137629 112.16821289 454.26074219 C110.23048441 455.28114176 108.2929794 456.30196582 106.35571289 457.32324219 C94.90828892 463.04695417 82.40127612 466.62789311 70.16821289 470.26074219 C69.42555176 470.49414307 68.68289063 470.72754395 67.91772461 470.96801758 C23.15552765 484.86289498 -27.34593574 481.32156824 -71.17797852 466.17431641 C-73.37223557 465.41894291 -75.57117001 464.69132398 -77.78100586 463.98339844 C-101.66184293 456.04196031 -123.21700271 442.82257949 -142.83178711 427.26074219 C-143.37577148 426.83390137 -143.91975586 426.40706055 -144.48022461 425.96728516 C-159.4302443 414.14579881 -173.43565493 400.32582412 -184.6418457 384.890625 C-185.82205723 383.27406937 -187.03976997 381.68511238 -188.25756836 380.09667969 C-199.74759649 364.90278021 -208.62037319 347.83987004 -215.83178711 330.26074219 C-216.53490352 328.77908857 -217.24245787 327.29952261 -217.95678711 325.82324219 C-220.74333415 319.58328214 -222.390584 312.90122707 -224.23364258 306.33740234 C-224.75574427 304.5247505 -225.32320481 302.72528687 -225.89819336 300.92871094 C-230.75387828 285.48572871 -233.41491151 268.4320413 -233.83178711 252.26074219 C-233.85756836 251.39529785 -233.88334961 250.52985352 -233.90991211 249.63818359 C-234.98736462 208.49969983 -227.45260974 166.83299752 -207.9206543 130.29833984 C-207.17672156 128.90621818 -206.44073298 127.50982961 -205.71166992 126.10986328 C-196.87146354 109.15178744 -185.90710745 94.04500203 -173.19116211 79.78759766 C-171.90400187 78.3418541 -170.63300687 76.88176555 -169.36303711 75.42089844 C-165.44083783 70.95469549 -161.43716711 66.83544872 -156.88647461 63.01074219 C-155.48536289 61.81739989 -154.11610384 60.58587736 -152.77709961 59.32324219 C-140.53690238 47.80305656 -126.68445041 38.10383374 -111.81323242 30.30957031 C-109.77925864 29.23293757 -107.76996499 28.11849389 -105.76147461 26.99511719 C-83.4685894 14.64921616 -58.95333018 6.47065262 -33.83178711 2.26074219 C-32.77701172 2.08099854 -31.72223633 1.90125488 -30.63549805 1.71606445 C-20.41129576 0.16235771 -10.33073618 -0.04602847 0 0 Z " fill="#016598" transform="translate(404.831787109375,149.7392578125)"/>
<path d="M0 0 C3.81178937 3.11166479 7.19407569 6.12856745 10.3125 9.9375 C16.77128996 17.43481786 25.05802933 21.67511477 33.81176758 25.94262695 C38.49487748 28.22759594 43.09001236 30.62049119 47.625 33.1875 C48.71039063 33.79980469 49.79578125 34.41210938 50.9140625 35.04296875 C60.98938576 41.43250919 65.77677677 49.41857949 68.5546875 60.9453125 C68.70164062 61.62335938 68.84859375 62.30140625 69 63 C69.433125 61.845 69.86625 60.69 70.3125 59.5 C70.58835937 58.77039063 70.86421875 58.04078125 71.1484375 57.2890625 C71.69068957 55.83144913 72.21840036 54.36828283 72.7265625 52.8984375 C76.47635369 42.22595488 82.96027874 35.7868677 93.02661133 30.91333008 C98.78137109 28.22583768 104.58415388 25.75074752 110.5 23.4375 C120.82574492 19.18903274 130.14748382 10.70923012 136.6640625 1.69921875 C137.32535156 0.85810547 137.32535156 0.85810547 138 0 C138.66 0 139.32 0 140 0 C140.44730469 1.19496094 140.89460938 2.38992187 141.35546875 3.62109375 C145.83153872 15.45443936 149.94829747 25.10891121 158.66796875 34.46484375 C169.51495313 46.25662409 179.65456821 57.82401871 179.1875 74.375 C179.17396484 75.28894531 179.16042969 76.20289062 179.14648438 77.14453125 C179.11082311 79.43024826 179.05917845 81.71480145 179 84 C179 84.33 179 84.66 179 85 C179.40089844 84.443125 179.80179688 83.88625 180.21484375 83.3125 C186.65955538 74.66109572 193.0764564 67.20847195 204 65 C209.26872608 64.5840096 214.53064288 64.52796885 219.8125 64.5 C233.52193206 64.4268491 245.13603381 62.76877889 257.625 56.75 C259.17635052 56.00860171 260.73089674 55.27384084 262.2890625 54.546875 C263.28993896 54.06492676 263.28993896 54.06492676 264.31103516 53.57324219 C264.86839355 53.38407227 265.42575195 53.19490234 266 53 C266.66 53.33 267.32 53.66 268 54 C267.97643433 54.95084473 267.97643433 54.95084473 267.95239258 55.92089844 C267.48377217 72.70893992 267.48377217 72.70893992 271 89 C271.49166439 90.52756106 271.97960977 92.05632165 272.46484375 93.5859375 C272.85687988 94.82174561 272.85687988 94.82174561 273.25683594 96.08251953 C273.52270508 96.92153809 273.78857422 97.76055664 274.0625 98.625 C274.32708008 99.45499512 274.59166016 100.28499023 274.86425781 101.14013672 C278.61824887 112.98822606 282.26434982 126.22827454 276.22265625 137.921875 C274.21760711 141.32981795 272.18956258 144.70668252 270 148 C270.70125 147.52949219 271.4025 147.05898437 272.125 146.57421875 C283.04303498 139.40925829 290.63748599 136.56636995 304 138 C308.53395165 139.25704347 312.7022997 141.10250617 317 143 C319.79952669 144.09778737 322.61765536 145.14320901 325.4375 146.1875 C326.09999756 146.43709473 326.76249512 146.68668945 327.44506836 146.94384766 C329.29318798 147.63867879 331.14649988 148.31965173 333 149 C333.93094482 149.35344482 334.86188965 149.70688965 335.82104492 150.07104492 C339.21565576 151.06301898 341.96333869 151.22892058 345.4921875 151.1953125 C347.29042969 151.18564453 347.29042969 151.18564453 349.125 151.17578125 C350.3625 151.15902344 351.6 151.14226562 352.875 151.125 C354.76605469 151.11146484 354.76605469 151.11146484 356.6953125 151.09765625 C359.7970704 151.07415808 362.89843652 151.04130334 366 151 C365.58032959 151.88518311 365.16065918 152.77036621 364.72827148 153.68237305 C359.58861142 164.56521064 355.21399087 174.63333784 354.53515625 186.734375 C354.45716797 188.03117188 354.37917969 189.32796875 354.29882812 190.6640625 C354.17982604 192.70200383 354.06305162 194.74001552 353.95043945 196.77832031 C353.09451838 212.06978655 351.33555542 223.60898677 339.74609375 234.52734375 C337.28635146 236.60189149 334.74664511 238.32521639 332 240 C332.56750977 239.83918945 333.13501953 239.67837891 333.71972656 239.51269531 C337.69056718 238.61989389 341.69527459 238.77364271 345.75 238.75 C346.61882813 238.729375 347.48765625 238.70875 348.3828125 238.6875 C359.25231859 238.62221768 366.18207585 242.65262175 374 250 C375.9506107 251.95900493 377.87561523 253.94131559 379.80004883 255.92602539 C389.85255741 266.27659635 399.1109667 272.54924698 413 277 C414.216875 277.4125 415.43375 277.825 416.6875 278.25 C417.450625 278.4975 418.21375 278.745 419 279 C416.17055453 282.89048752 412.98855951 285.83823067 409.29296875 288.86328125 C401.85363688 295.79567398 397.47285888 303.26953728 393 312.375 C379.04403439 340.59844831 379.04403439 340.59844831 365 346 C361.02141609 347.09948013 357.02404292 348.08189312 353 349 C353.96679688 349.14695312 354.93359375 349.29390625 355.9296875 349.4453125 C366.73041231 351.24149431 375.38874037 354.21352376 382.6484375 362.8984375 C386.21500106 368.4441346 388.67037168 374.52259575 391.14379883 380.61181641 C396.77413329 394.35773558 404.97224497 409.98612248 419 417 C419 417.66 419 418.32 419 419 C418.46375 419.12375 417.9275 419.2475 417.375 419.375 C402.97753906 423.16380551 391.33161168 430.57892571 380.36865234 440.47216797 C369.9140207 449.85982001 359.99529341 458.20572241 345.25 458.125 C344.5590625 458.12886719 343.868125 458.13273437 343.15625 458.13671875 C338.67346035 458.12829245 334.4232824 457.72949422 330 457 C330.81791016 457.4021875 330.81791016 457.4021875 331.65234375 457.8125 C343.00238404 463.7106406 349.93031929 470.79095786 354 483 C354.13974392 485.16549052 354.22544102 487.3346292 354.28125 489.50390625 C354.33732422 491.45200195 354.33732422 491.45200195 354.39453125 493.43945312 C354.43012655 494.81379078 354.46528001 496.18813995 354.5 497.5625 C354.94210746 514.74477925 356.0025325 528.23496928 365.08203125 543.29296875 C366 545 366 545 366 547 C365.29504395 546.98952637 364.59008789 546.97905273 363.86376953 546.96826172 C360.61755044 546.92625495 357.37138884 546.9005334 354.125 546.875 C353.01640625 546.85824219 351.9078125 546.84148438 350.765625 546.82421875 C342.2061063 546.77386864 334.42986693 547.44858998 326.5 550.8125 C310.00210041 557.70830977 295.10559792 560.7330545 278 554 C275.52218353 552.79369461 273.31362664 551.50654758 271 550 C271.47050781 550.68964844 271.94101562 551.37929688 272.42578125 552.08984375 C279.16855869 562.26683081 282.99000255 571.12711914 280.49609375 583.5 C278.90446875 589.17528001 276.57881529 594.55483939 274.26953125 599.96875 C270.75207664 608.36734932 267.85709174 615.9896233 267.90234375 625.17578125 C267.90556641 626.33271484 267.90878906 627.48964844 267.91210938 628.68164062 C267.92048828 629.87982422 267.92886719 631.07800781 267.9375 632.3125 C267.94426758 634.1387793 267.94426758 634.1387793 267.95117188 636.00195312 C267.96293422 639.00135226 267.97937174 642.00065089 268 645 C264.6586408 643.91925839 261.40757449 642.82453479 258.23828125 641.30859375 C257.59439453 641.00373047 256.95050781 640.69886719 256.28710938 640.38476562 C255.63548828 640.07216797 254.98386719 639.75957031 254.3125 639.4375 C249.08540197 636.94332591 244.62917142 634.94775436 238.80078125 634.53515625 C237.76373047 634.45861816 236.72667969 634.38208008 235.65820312 634.30322266 C234.00208008 634.18406494 234.00208008 634.18406494 232.3125 634.0625 C196.69979539 631.30542026 196.69979539 631.30542026 185 620 C182.77152581 617.12040784 180.82185583 614.1507389 179 611 C179.165 612.216875 179.33 613.43375 179.5 614.6875 C180.6864861 625.96797236 181.33308613 636.86186934 174.22265625 646.37890625 C171.89601855 649.00883005 169.46909142 651.5030486 167 654 C154.15830635 667.34747712 144.05839183 679.42688917 140 698 C139.34 698 138.68 698 138 698 C136.63620378 696.39641543 135.33474041 694.73964875 134.0625 693.0625 C126.15523881 683.27255758 117.40517356 677.3725802 106.21484375 672.04296875 C101.84527981 669.95566245 97.60193672 667.67355382 93.375 665.3125 C92.72442627 664.95607422 92.07385254 664.59964844 91.40356445 664.23242188 C82.09464528 659.00076336 75.49404712 652.10452156 71.890625 641.83984375 C71.17836581 639.23606604 70.53717371 636.64494104 70 634 C69.84144531 634.76183594 69.68289063 635.52367187 69.51953125 636.30859375 C67.94494171 643.27680492 65.90711103 649.0156907 62 655 C61.443125 655.886875 60.88625 656.77375 60.3125 657.6875 C54.47747438 663.52252562 46.89092208 666.55462831 39.3515625 669.59375 C29.40780811 673.76595464 19.48435651 678.03568476 12 686 C11.54189941 686.48645996 11.08379883 686.97291992 10.61181641 687.47412109 C7.36057773 690.94120965 4.16634063 694.45532822 1 698 C-1 697 -1 697 -2.11328125 693.97265625 C-2.51704083 692.67051053 -2.91651534 691.36703111 -3.3125 690.0625 C-6.73387276 679.46162749 -10.68707898 671.90678687 -18.4453125 663.72265625 C-22.23406417 659.68479705 -25.64521902 655.40097048 -29 651 C-29.63035156 650.17628906 -30.26070312 649.35257813 -30.91015625 648.50390625 C-39.25578642 637.14605288 -41.04948027 628.66010702 -39 614.9375 C-38.67335561 612.95721839 -38.34234065 610.97762855 -38 609 C-38.4125 609.70125 -38.825 610.4025 -39.25 611.125 C-45.93599911 622.10914139 -52.30600185 629.41445547 -65 633 C-71.46837457 633.86277165 -78.0649442 633.55594319 -84.57397461 633.47021484 C-95.75296573 633.36599877 -104.59018302 634.74111261 -115 639 C-116.18178833 639.48170654 -116.18178833 639.48170654 -117.38745117 639.97314453 C-119.0912595 640.70715269 -120.76705887 641.50543294 -122.4375 642.3125 C-123.50871094 642.82425781 -124.57992187 643.33601562 -125.68359375 643.86328125 C-126.44800781 644.23839844 -127.21242187 644.61351562 -128 645 C-127.97679687 643.80246094 -127.95359375 642.60492187 -127.9296875 641.37109375 C-127.73610668 627.27317016 -128.25041586 614.58634098 -133.69140625 601.36328125 C-138.4387249 589.16196377 -142.3038888 574.11755663 -137.68359375 561.3671875 C-136.2413146 558.48262921 -134.67359662 555.75378502 -133 553 C-132.67 552.01 -132.34 551.02 -132 550 C-132.70125 550.47050781 -133.4025 550.94101562 -134.125 551.42578125 C-143.7705873 557.75569792 -151.19907848 561.63642993 -163 560 C-172.71279194 557.51600206 -182.01474848 553.27711703 -191.14453125 549.19921875 C-195.77615514 547.25406343 -199.473606 546.87942548 -204.515625 546.90234375 C-205.76601562 546.90556641 -207.01640625 546.90878906 -208.3046875 546.91210938 C-209.60664063 546.92048828 -210.90859375 546.92886719 -212.25 546.9375 C-213.56742187 546.94201172 -214.88484375 546.94652344 -216.2421875 546.95117188 C-219.49483741 546.96295684 -222.74739584 546.97940989 -226 547 C-225.53512828 545.54953255 -225.0654564 544.10060292 -224.59375 542.65234375 C-224.33271484 541.84531006 -224.07167969 541.03827637 -223.80273438 540.20678711 C-223 538 -223 538 -221.5 535.5625 C-217.49907814 528.72759183 -216.07586114 520.24310486 -215.53515625 512.4296875 C-215.41817383 510.83640625 -215.41817383 510.83640625 -215.29882812 509.2109375 C-215.14294756 507.01057384 -214.98925312 504.81005407 -214.83789062 502.609375 C-213.62583685 486.25157603 -211.2837734 473.6448523 -199 462 C-196.72644904 460.15377705 -194.47330504 458.57870534 -192 457 C-193.155 457.33 -194.31 457.66 -195.5 458 C-204.94853721 460.04494407 -216.02211309 460.89084984 -224.58203125 455.80078125 C-230.86293829 451.12307827 -236.43359444 445.68255874 -241.85546875 440.05078125 C-252.85546386 428.67843088 -264.29280405 424.07753824 -279 419 C-277.4844458 415.78632963 -276.06803732 413.95581068 -273.3125 411.6875 C-272.24322266 410.77291016 -272.24322266 410.77291016 -271.15234375 409.83984375 C-270.44207031 409.23269531 -269.73179687 408.62554687 -269 408 C-262.93334569 402.74392163 -259.58992016 397.13291327 -256 390 C-254.67452193 387.38617209 -253.3426157 384.77598555 -252.00097656 382.17041016 C-251.06521741 380.35193726 -250.13828444 378.52888615 -249.22167969 376.70068359 C-242.88778429 364.36686184 -235.48631408 355.77424303 -222.39453125 350.76171875 C-219.94600738 349.98282453 -217.52739592 349.45340495 -215 349 C-216.68416016 348.58041016 -216.68416016 348.58041016 -218.40234375 348.15234375 C-230.07665811 345.09133983 -238.92442909 341.52041199 -245.54296875 330.8359375 C-247.76346776 326.51400108 -249.52792955 322.02716393 -251.32910156 317.51782227 C-257.13765749 303.05515281 -264.4572064 291.54154212 -277.34765625 282.375 C-278.16556641 281.694375 -278.16556641 281.694375 -279 281 C-279 280.34 -279 279.68 -279 279 C-278.3915625 278.8040625 -277.783125 278.608125 -277.15625 278.40625 C-263.99413556 273.91564625 -252.67888732 268.45873805 -242.73046875 258.671875 C-234.37578679 250.49647806 -222.29581892 239.30285501 -209.99145508 238.94091797 C-207.90122747 239.02426077 -205.83273953 239.1807146 -203.75 239.375 C-202.34899918 239.48748912 -200.94795887 239.59948765 -199.546875 239.7109375 C-198.37640625 239.80632812 -197.2059375 239.90171875 -196 240 C-195.01 240 -194.02 240 -193 240 C-193.72445312 239.50371094 -194.44890625 239.00742187 -195.1953125 238.49609375 C-204.63738548 231.8614638 -211.67232782 225.72080198 -214 214 C-214.12553867 211.71682058 -214.20127244 209.43072006 -214.24609375 207.14453125 C-214.2790568 205.78580145 -214.312268 204.42707764 -214.34570312 203.06835938 C-214.39284658 200.94690399 -214.43725826 198.82546845 -214.47680664 196.70385742 C-214.77696487 181.32748828 -217.80256962 168.63371684 -225.046875 154.99609375 C-226 153 -226 153 -226 151 C-224.99755249 151.03927612 -224.99755249 151.03927612 -223.97485352 151.0793457 C-210.59544947 151.53270974 -198.76404726 151.41175082 -186.14355469 146.77050781 C-182.8947786 145.60272452 -179.60226513 144.58266185 -176.30810547 143.55126953 C-174.646045 143.03066613 -172.98606241 142.50336478 -171.32861328 141.96826172 C-160.60370593 138.51875696 -151.70174812 137.97023829 -141 142 C-137.53615381 143.81747871 -134.24830088 145.8227224 -131 148 C-131.72316406 146.87851562 -131.72316406 146.87851562 -132.4609375 145.734375 C-133.09257812 144.74953125 -133.72421875 143.7646875 -134.375 142.75 C-135.00148437 141.77546875 -135.62796875 140.8009375 -136.2734375 139.796875 C-141.35507282 131.56508566 -142.16898851 122.93031811 -140.3046875 113.47265625 C-138.74074271 107.55623015 -136.27008808 101.95756111 -133.9375 96.3125 C-133.02590825 94.10192197 -132.11820135 91.88973694 -131.21484375 89.67578125 C-130.81386475 88.70552002 -130.41288574 87.73525879 -129.99975586 86.7355957 C-128.27556424 82.01775271 -127.87767005 77.83297946 -127.90234375 72.82421875 C-127.90556641 71.66728516 -127.90878906 70.51035156 -127.91210938 69.31835938 C-127.92048828 68.12017578 -127.92886719 66.92199219 -127.9375 65.6875 C-127.94426758 63.8612207 -127.94426758 63.8612207 -127.95117188 61.99804688 C-127.96293422 58.99864774 -127.97937174 55.99934911 -128 53 C-122.5294346 54.77758806 -117.49543284 57.06958708 -112.31640625 59.5625 C-106.51930526 62.07525991 -100.98486896 63.25954862 -94.703125 63.78125 C-93.69170441 63.86977234 -93.69170441 63.86977234 -92.65985107 63.96008301 C-90.52373078 64.14655158 -88.38702074 64.32417531 -86.25 64.5 C-55.18034732 67.08202471 -55.18034732 67.08202471 -45.56640625 77.68359375 C-44.16260472 79.44772936 -42.79052577 81.23787186 -41.4609375 83.05859375 C-40.73777344 84.01958984 -40.73777344 84.01958984 -40 85 C-39.67 85 -39.34 85 -39 85 C-39.16008545 84.43249023 -39.3201709 83.86498047 -39.48510742 83.28027344 C-40.38198047 79.30834634 -40.26814435 75.30706386 -40.3125 71.25 C-40.34150391 70.38117188 -40.37050781 69.51234375 -40.40039062 68.6171875 C-40.48315389 60.13713594 -37.78355948 54.42789308 -32 48.25 C-30.83017578 46.99123047 -30.83017578 46.99123047 -29.63671875 45.70703125 C-27.25321628 43.25996871 -24.83056075 40.86460514 -22.38671875 38.47851562 C-17.18342384 33.38496763 -12.59452384 28.38088293 -9 22 C-8.63648438 21.36964844 -8.27296875 20.73929688 -7.8984375 20.08984375 C-5.23012782 15.13004674 -3.5339321 9.89564286 -1.83203125 4.5390625 C-1 2 -1 2 0 0 Z M30 110 C29.0200708 110.17168701 28.0401416 110.34337402 27.03051758 110.52026367 C24.30043921 111.03204879 21.5883097 111.59347196 18.875 112.1875 C17.905625 112.39963135 16.93625 112.6117627 15.9375 112.83032227 C5.70370377 115.1619997 -4.14992105 118.40117217 -14 122 C-15.0194873 122.36496582 -15.0194873 122.36496582 -16.05957031 122.73730469 C-26.46012963 126.49379809 -36.10252231 131.48844544 -45.78417969 136.7890625 C-47.76831415 137.87338455 -49.76133398 138.93866296 -51.7578125 140 C-66.12661223 147.85538026 -78.70699256 158.2597935 -91 169 C-91.9178125 169.7940625 -92.835625 170.588125 -93.78125 171.40625 C-98.26498563 175.34977652 -102.40779194 179.37379643 -106.25 183.9453125 C-107.4433423 185.34642422 -108.67486483 186.71568327 -109.9375 188.0546875 C-126.73090595 205.89768132 -139.20166554 226.93913449 -149.18164062 249.19580078 C-149.89363361 250.76549892 -150.63927414 252.31984969 -151.390625 253.87109375 C-160.15363688 272.09039376 -165.50454059 292.98786921 -168 313 C-168.08878418 313.69899414 -168.17756836 314.39798828 -168.26904297 315.11816406 C-172.259605 347.62139278 -170.53831925 380.6158528 -161 412 C-160.62268807 413.3609824 -160.24913494 414.7230112 -159.87890625 416.0859375 C-157.10570695 426.167251 -153.49773284 435.56567448 -149 445 C-148.68659668 445.6585498 -148.37319336 446.31709961 -148.05029297 446.99560547 C-138.45961677 466.97171142 -127.42872493 485.12354495 -113 502 C-112.01 503.15822266 -112.01 503.15822266 -111 504.33984375 C-99.75499914 517.13955116 -87.73619738 528.91524666 -74 539 C-72.8710548 539.84760437 -71.74214857 540.69526066 -70.61328125 541.54296875 C-48.52501704 557.92175038 -24.20611885 568.96699197 2 577 C3.52349349 577.48810653 5.04693564 577.97637333 6.5703125 578.46484375 C50.05932251 591.92513672 98.87555672 589.25229291 142 576 C143.12019531 575.6596875 144.24039062 575.319375 145.39453125 574.96875 C152.18669557 572.80641784 158.56000006 570.03773582 165 567 C166.70826244 566.24983853 168.41659727 565.49984192 170.125 564.75 C196.53144369 552.65172863 219.05623392 535.99581627 240 516 C240.67417969 515.36707031 241.34835937 514.73414063 242.04296875 514.08203125 C247.17982352 509.13325354 251.57581474 503.58272804 256 498 C256.81855469 496.97519531 257.63710938 495.95039062 258.48046875 494.89453125 C279.55512874 468.22370571 294.89863222 437.00032678 303 404 C303.18691406 403.25169922 303.37382813 402.50339844 303.56640625 401.73242188 C318.47843786 340.8850761 306.74782431 274.75492541 274.49633789 221.51171875 C259.88542295 197.92984538 240.90245116 176.0383638 219 159 C218.43748535 158.55043945 217.8749707 158.10087891 217.29541016 157.63769531 C198.75223557 142.83722579 177.39737442 131.23793919 155.203125 122.8515625 C153.4447672 122.17191356 151.71904861 121.40801985 150.0078125 120.6171875 C144.72803766 118.3449685 139.16814935 116.97512835 133.625 115.5 C132.4690332 115.19175293 131.31306641 114.88350586 130.12207031 114.56591797 C110.04351527 109.30991282 90.66518452 107.81295031 69.96899414 107.81469727 C67.0709777 107.81250641 64.17334041 107.79426738 61.27539062 107.77539062 C50.66100275 107.74244887 40.47905575 108.15620782 30 110 Z " fill="#51BED6" transform="translate(341,42)"/>
<path d="M0 0 C125.73 0 251.46 0 381 0 C380.03108458 4.84457709 378.91537546 7.11709856 376.3125 11.1875 C375.5816272 12.34479701 374.85116204 13.50235155 374.12109375 14.66015625 C373.07115234 16.31337891 373.07115234 16.31337891 372 18 C368.34925116 23.92923038 364.91409056 29.94247618 361.6015625 36.06640625 C355.70806845 46.86156242 349.41260779 57.43556092 343.20507812 68.05151367 C339.92211182 73.67512962 336.67019365 79.31207752 333.5 85 C329.13632146 92.8292584 324.60767158 100.56041195 320.08203125 108.296875 C317.02912974 113.51720442 313.98861591 118.74260685 311 124 C303.93020305 136.42113579 296.70677305 148.75706483 289.41796875 161.05078125 C288.84328857 162.02015625 288.2686084 162.98953125 287.67651367 163.98828125 C286.59913767 165.80320561 285.52001879 167.61709711 284.4387207 169.4296875 C281.36937879 174.59700373 278.44525142 179.8240368 275.58496094 185.10961914 C272.68694084 190.39453287 269.64832504 195.59859908 266.625 200.8125 C265.2845992 203.12858439 263.94508173 205.44517847 262.60546875 207.76171875 C261.97431152 208.85274902 261.3431543 209.9437793 260.69287109 211.06787109 C258.76150942 214.41307642 256.84635299 217.76690939 254.9375 221.125 C247.87952906 233.49936463 240.68307213 245.79704018 233.41796875 258.05078125 C232.84328857 259.02015625 232.2686084 259.98953125 231.67651367 260.98828125 C230.59913767 262.80320561 229.52001879 264.61709711 228.4387207 266.4296875 C225.36937879 271.59700373 222.44525142 276.8240368 219.58496094 282.10961914 C216.68694292 287.39452908 213.64844938 292.59867481 210.625 297.8125 C209.29790015 300.10530848 207.97107481 302.39827587 206.64453125 304.69140625 C205.7002124 306.32360107 205.7002124 306.32360107 204.73681641 307.98876953 C202.00104401 312.73195434 199.30126357 317.49522879 196.61328125 322.265625 C194.84632122 325.2604725 192.95300792 328.12367461 191 331 C187.95591262 327.22454098 185.65007736 323.07250948 183.25 318.875 C182.7746582 318.0487915 182.29931641 317.22258301 181.80957031 316.37133789 C180.76399818 314.55394645 179.71945012 312.73596556 178.67578125 310.91748047 C176.33333633 306.8393603 173.98135066 302.7667698 171.62988281 298.69384766 C169.71590631 295.37844265 167.80309968 292.06236527 165.890625 288.74609375 C162.09448092 282.16364071 158.29734227 275.58176187 154.5 269 C153.2499953 266.83333604 151.99999531 264.66666937 150.75 262.5 C150.13125 261.4275 149.5125 260.355 148.875 259.25 C143.25 249.5 143.25 249.5 141.3737793 246.24780273 C140.1279423 244.08840605 138.88201182 241.92906331 137.63598633 239.76977539 C134.44651047 234.24232403 131.25883115 228.71384879 128.07421875 223.18359375 C122.33057942 213.21297467 116.57901353 203.24965849 110.71240234 193.35083008 C106.60581107 186.39040484 102.6585696 179.33961102 98.72802734 172.27856445 C96.10301683 167.59293308 93.39567818 163.00384019 90.48046875 158.4921875 C87.58974313 154.00547811 84.98057621 149.42761333 82.4609375 144.72412109 C80.04273622 140.21504859 77.51820391 135.76627074 75 131.3125 C74.16359985 129.83317993 74.16359985 129.83317993 73.31030273 128.32397461 C67.56089289 118.18337787 61.68558968 108.11760993 55.79248047 98.06005859 C52.73161039 92.83465058 49.67768729 87.60519163 46.625 82.375 C46.03211182 81.35929932 45.43922363 80.34359863 44.82836914 79.29711914 C41.23827447 73.14071334 37.68536673 66.96552826 34.1640625 60.76953125 C32.42960695 57.73381182 30.66649997 54.71548055 28.8984375 51.69921875 C22.00420359 39.93755056 15.21499966 28.12992293 8.61865234 16.19799805 C5.29887803 10.1907573 5.29887803 10.1907573 1.6015625 4.4140625 C0 2 0 2 0 0 Z " fill="#50BED6" transform="translate(220,277)"/>
<path d="M0 0 C2.2102192 2.2102192 4.40524517 4.42501323 6.5625 6.6875 C10.73207422 10.6432499 14.96001428 10.16960421 20.39941406 10.20874023 C21.25667587 10.21852402 22.11393768 10.2283078 22.99717712 10.23838806 C25.83664399 10.26832308 28.67606381 10.28972237 31.515625 10.30859375 C32.48603477 10.31516558 33.45644455 10.3217374 34.45626068 10.32850838 C39.5930587 10.3610939 44.72983605 10.3855466 49.86669922 10.4050293 C54.11537883 10.42284159 58.36339464 10.45766188 62.61181641 10.50756836 C67.74412935 10.56778605 72.87582686 10.59850712 78.00847626 10.60820198 C79.96210643 10.61675504 81.91572023 10.63556949 83.86914825 10.6649456 C86.60782821 10.7039125 89.34411585 10.70488842 92.08300781 10.69702148 C92.88534348 10.71702209 93.68767914 10.73702271 94.514328 10.75762939 C99.91309454 10.68823836 102.66818713 9.28266159 106.58692551 5.58096409 C108.20442815 3.84600927 108.20442815 3.84600927 110 1 C110.66 1 111.32 1 112 1 C112.25523437 1.88751953 112.25523437 1.88751953 112.515625 2.79296875 C114.95827428 10.7907538 114.95827428 10.7907538 121.10546875 16.19921875 C127.32575476 19.18232112 133.82446599 21.38536579 140.33251953 23.63964844 C153.79202261 28.32914525 166.7185247 34.15541294 179.62719727 40.18041992 C191.77363264 46.3252096 191.77363264 46.3252096 205 47 C208.19208509 45.60285637 211.09705025 43.9215743 214 42 C213.91878906 42.97839844 213.83757812 43.95679688 213.75390625 44.96484375 C213.15183892 53.69067148 213.15183892 53.69067148 216.5 61.5 C217.94458287 63.05344145 219.45744866 64.54379419 221 66 C221.57443848 66.556875 222.14887695 67.11375 222.74072266 67.6875 C229.02680772 73.77848326 235.47278662 79.67702908 242.0625 85.4375 C250.57066279 93.02274344 258.26771748 101.64409272 265.69140625 110.28125 C268.03742454 112.97628996 270.33293416 115.34456455 273.25 117.4375 C274.21679688 118.14712891 274.21679688 118.14712891 275.203125 118.87109375 C278.85252237 121.16386731 281.99212497 121.10761156 286.1875 121.0625 C287.27417969 121.05347656 288.36085938 121.04445313 289.48046875 121.03515625 C290.31191406 121.02355469 291.14335938 121.01195312 292 121 C291.71125 121.53367187 291.4225 122.06734375 291.125 122.6171875 C287.75652611 129.37752746 286.54925935 135.12856562 288.7421875 142.4921875 C290.7369936 147.51560432 293.15768923 152.32581828 295.53515625 157.17578125 C301.23966853 168.85307745 306.12827711 180.40489703 310.22802734 192.73242188 C314.91799633 207.7659538 314.91799633 207.7659538 324.3125 219.875 C327.82617734 221.34584168 331.27917572 222.18015736 335 223 C334.278125 223.53625 333.55625 224.0725 332.8125 224.625 C328.23711369 228.48865955 324.80750177 231.85484399 324 238 C323.89263743 240.73064918 323.83270461 243.43666348 323.82299805 246.16748047 C323.81642685 246.97626648 323.80985565 247.78505249 323.80308533 248.61834717 C323.78343595 251.28462834 323.77171023 253.95085349 323.76171875 256.6171875 C323.75764322 257.53060032 323.7535677 258.44401314 323.74936867 259.38510513 C323.72854648 264.21718364 323.71422651 269.04923405 323.70483398 273.88134766 C323.69376011 278.86357317 323.65933792 283.84535326 323.61966228 288.82742119 C323.59348982 292.66737688 323.58514173 296.5072263 323.58155251 300.34726334 C323.57669048 302.18362573 323.56508745 304.01998349 323.54651451 305.85625839 C323.52210269 308.42910716 323.52309121 311.00080076 323.5300293 313.57373047 C323.51721924 314.32617035 323.50440918 315.07861023 323.49121094 315.85385132 C323.54464916 321.31160251 324.93166051 324.47655114 328 329 C329.8199452 330.75520277 329.8199452 330.75520277 331.75 331.875 C332.8225 332.57625 333.895 333.2775 335 334 C335 334.33 335 334.66 335 335 C333.783125 335.268125 332.56625 335.53625 331.3125 335.8125 C324.74915862 337.51966085 321.24190076 340.11016624 317.6015625 345.83203125 C314.6757117 351.61950686 312.77418866 357.79108657 310.71875 363.9296875 C305.83694835 378.50426273 299.69901056 392.88067161 292.6875 406.5625 C289.1794959 413.50367078 286.80965913 420.15205495 288 428 C289.11438395 430.55339279 290.46701358 432.65261455 292 435 C292 435.66 292 436.32 292 437 C291.05898438 436.95359375 290.11796875 436.9071875 289.1484375 436.859375 C287.90320313 436.82328125 286.65796875 436.7871875 285.375 436.75 C284.14523437 436.70359375 282.91546875 436.6571875 281.6484375 436.609375 C274.82734677 437.3396845 270.64190777 442.05625748 266.0625 446.75 C265.57587891 447.23726562 265.08925781 447.72453125 264.58789062 448.2265625 C261.87223625 450.9742495 259.29014106 453.79957242 256.7734375 456.73046875 C252.27772598 461.91274185 247.42191211 466.72381033 242.5625 471.5625 C241.65951172 472.46935547 240.75652344 473.37621094 239.82617188 474.31054688 C235.24158074 478.88849849 230.60144755 483.32810792 225.6862793 487.54956055 C223.60022007 489.34386746 221.59451548 491.20371755 219.625 493.125 C218.65433594 494.05699219 218.65433594 494.05699219 217.6640625 495.0078125 C214.03828898 499.34852728 213.76325212 503.28097979 213.875 508.8125 C213.89304687 509.97394531 213.91109375 511.13539063 213.9296875 512.33203125 C213.96449219 513.65267578 213.96449219 513.65267578 214 515 C211.57785583 514.05805505 209.223214 513.11748105 206.921875 511.90625 C201.44427002 509.32331432 195.94732789 510.83290334 190.51538086 512.74438477 C180.12141884 516.64133358 170.15137801 521.50377075 160.1875 526.375 C154.28068468 529.18073728 148.23653942 531.36853372 142.0625 533.5 C125.73000009 537.95640335 125.73000009 537.95640335 114 549 C113.03168864 551.97613344 112.40778845 554.89940162 112 558 C109.8318664 555.8318664 107.71580873 553.6774045 105.6875 551.375 C100.59861075 546.87784206 94.54496574 546.70247949 88.00439453 546.7253418 C87.23754333 546.72023087 86.47069214 546.71511993 85.68060303 546.70985413 C83.16459177 546.69604009 80.648857 546.69690878 78.1328125 546.69921875 C76.37075704 546.69532713 74.60870251 546.69099151 72.84664917 546.68623352 C69.15994216 546.67878876 65.47333095 546.67904977 61.78662109 546.68432617 C57.08046483 546.69011643 52.37470269 546.67319209 47.66861153 546.6499815 C44.03101336 546.63519305 40.39350898 546.63437943 36.75588608 546.63749123 C35.02167862 546.63698051 33.28746557 546.63179011 31.55328751 546.62167931 C17.60101023 545.9106452 17.60101023 545.9106452 5.43826294 551.45195007 C3.87681653 553.22843035 3.87681653 553.22843035 2 556 C1.34 556.66 0.68 557.32 0 558 C-0.18433594 557.20335937 -0.36867188 556.40671875 -0.55859375 555.5859375 C-2.55031479 548.16271719 -2.55031479 548.16271719 -7.625 542.6875 C-17.73463935 537.02275993 -29.25566806 533.52212466 -40.2265625 529.9453125 C-48.11696853 527.2559065 -55.57685751 523.76152628 -63 520 C-77.23659663 512.10414083 -77.23659663 512.10414083 -93 511 C-96.14583701 512.09236963 -99.07284529 513.41622547 -102 515 C-101.93039063 514.16597656 -101.86078125 513.33195313 -101.7890625 512.47265625 C-101.70785156 510.78462891 -101.70785156 510.78462891 -101.625 509.0625 C-101.52058594 507.40927734 -101.52058594 507.40927734 -101.4140625 505.72265625 C-102.819608 496.79275715 -109.94840633 490.69552701 -116.375 484.875 C-117.09171875 484.21113281 -117.8084375 483.54726563 -118.546875 482.86328125 C-122.07925438 479.60507572 -125.66130986 476.40991571 -129.28515625 473.25390625 C-135.29670202 468.01823486 -140.73792497 462.37358906 -145.94921875 456.34765625 C-148.62309297 453.2867069 -151.33109892 450.25966151 -154.0625 447.25 C-154.8045166 446.41722534 -154.8045166 446.41722534 -155.56152344 445.56762695 C-159.76639877 440.96079452 -163.38853802 437.26378404 -169.8671875 436.609375 C-171.20369022 436.63558094 -172.53993412 436.68272924 -173.875 436.75 C-174.56335938 436.76804687 -175.25171875 436.78609375 -175.9609375 436.8046875 C-177.6412381 436.85136252 -179.32081163 436.92309061 -181 437 C-180.45859375 436.18208984 -180.45859375 436.18208984 -179.90625 435.34765625 C-176.46892552 429.76200397 -174.63464499 425.53627398 -176 419 C-178.70461634 410.77538172 -182.39280773 403.12625019 -186.35546875 395.44140625 C-192.25827713 383.08897352 -196.95487695 370.01138397 -201.375 357.0625 C-205.39581373 345.36912659 -205.39581373 345.36912659 -214 337 C-216.66222621 336.14073669 -219.24919879 335.55948499 -222 335 C-220.6618467 330.9855401 -218.23686108 329.64233558 -215 327 C-212.44257262 323.16385892 -212.71177441 320.03159472 -212.7253418 315.5847168 C-212.72023087 314.72584869 -212.71511993 313.86698059 -212.70985413 312.98208618 C-212.69593411 310.13772648 -212.69691706 307.29360851 -212.69921875 304.44921875 C-212.69533242 302.47247731 -212.69099789 300.49573671 -212.68623352 298.51899719 C-212.6787656 294.37209367 -212.67906621 290.22527527 -212.68432617 286.07836914 C-212.69011386 280.76871993 -212.67320946 275.45942034 -212.6499815 270.14982891 C-212.63523389 266.0654141 -212.634374 261.98108322 -212.63749123 257.8966465 C-212.63697828 255.93946453 -212.6317455 253.98227784 -212.62167931 252.02512169 C-212.60931589 249.28434082 -212.61610663 246.54423717 -212.62768555 243.8034668 C-212.62004181 242.99753586 -212.61239807 242.19160492 -212.60452271 241.36125183 C-212.64976 236.50641008 -213.36582791 233.23052823 -216 229 C-217.74777545 227.29355423 -217.74777545 227.29355423 -219.6875 226.125 C-220.780625 225.42375 -221.87375 224.7225 -223 224 C-220.29721134 221.29721134 -217.66200412 220.99308586 -214 220 C-211.21776622 219.30514736 -211.21776622 219.30514736 -209 218 C-207.83486387 215.80067065 -207.83486387 215.80067065 -207 213 C-206.36696003 211.76419589 -205.71975921 210.53559514 -205.0625 209.3125 C-203.14589211 205.54317115 -201.91648232 201.76122693 -200.80859375 197.6875 C-198.53299793 190.12416704 -195.34233198 182.84698966 -192.3125 175.5625 C-191.87478271 174.51006104 -191.43706543 173.45762207 -190.98608398 172.37329102 C-187.75513536 164.66673692 -184.3250748 157.08248249 -180.69140625 149.55859375 C-176.14945645 140.21413326 -176.14945645 140.21413326 -176 130 C-177.11816499 127.44903486 -178.46741228 125.34677495 -180 123 C-180 122.34 -180 121.68 -180 121 C-179.29875 121.04640625 -178.5975 121.0928125 -177.875 121.140625 C-168.71182916 121.48922389 -162.7602646 119.24024424 -156 113 C-154.31242199 111.15575029 -152.67910593 109.27180648 -151.05078125 107.375 C-144.26925349 99.52134499 -137.13345871 92.03658019 -129.8125 84.6875 C-129.15967041 84.03007812 -128.50684082 83.37265625 -127.83422852 82.6953125 C-122.91671401 77.79327161 -117.88081584 72.95626516 -112.35009766 68.74316406 C-107.55419331 65.06056746 -103.8269955 60.64242873 -102.46875 54.66015625 C-102.00461933 50.78595444 -101.87416531 46.9008753 -102 43 C-99.62703217 43.92282082 -97.31791169 44.82747475 -95.078125 46.04296875 C-90.57596334 48.11633267 -85.98978474 47.62912312 -81.34375 46.16015625 C-78.17752383 44.86844035 -75.09238708 43.4601964 -72 42 C-70.61344606 41.35381291 -69.22671801 40.70799931 -67.83984375 40.0625 C-62.54522575 37.58667182 -57.26037897 35.09050793 -51.99609375 32.55078125 C-45.68107564 29.56738223 -39.22645182 27.31859856 -32.578125 25.2109375 C-28.95399574 23.98443087 -25.50565186 22.52952342 -22 21 C-18.6707053 19.70591428 -15.33035677 18.44423563 -11.98828125 17.18359375 C-7.12536333 15.55101553 -7.12536333 15.55101553 -3.9375 11.9375 C-3.628125 10.968125 -3.31875 9.99875 -3 9 C-2.45892962 7.39563211 -1.91722525 5.79147795 -1.375 4.1875 C-0.91519488 2.7921508 -0.45636536 1.396478 0 0 Z M16 40 C15.0200708 40.17168701 14.0401416 40.34337402 13.03051758 40.52026367 C10.30043921 41.03204879 7.5883097 41.59347196 4.875 42.1875 C3.905625 42.39963135 2.93625 42.6117627 1.9375 42.83032227 C-8.29629623 45.1619997 -18.14992105 48.40117217 -28 52 C-29.0194873 52.36496582 -29.0194873 52.36496582 -30.05957031 52.73730469 C-40.46012963 56.49379809 -50.10252231 61.48844544 -59.78417969 66.7890625 C-61.76831415 67.87338455 -63.76133398 68.93866296 -65.7578125 70 C-80.12661223 77.85538026 -92.70699256 88.2597935 -105 99 C-105.9178125 99.7940625 -106.835625 100.588125 -107.78125 101.40625 C-112.26498563 105.34977652 -116.40779194 109.37379643 -120.25 113.9453125 C-121.4433423 115.34642422 -122.67486483 116.71568327 -123.9375 118.0546875 C-140.73090595 135.89768132 -153.20166554 156.93913449 -163.18164062 179.19580078 C-163.89363361 180.76549892 -164.63927414 182.31984969 -165.390625 183.87109375 C-174.15363688 202.09039376 -179.50454059 222.98786921 -182 243 C-182.08878418 243.69899414 -182.17756836 244.39798828 -182.26904297 245.11816406 C-186.259605 277.62139278 -184.53831925 310.6158528 -175 342 C-174.62268807 343.3609824 -174.24913494 344.7230112 -173.87890625 346.0859375 C-171.10570695 356.167251 -167.49773284 365.56567448 -163 375 C-162.68659668 375.6585498 -162.37319336 376.31709961 -162.05029297 376.99560547 C-152.45961677 396.97171142 -141.42872493 415.12354495 -127 432 C-126.01 433.15822266 -126.01 433.15822266 -125 434.33984375 C-113.75499914 447.13955116 -101.73619738 458.91524666 -88 469 C-86.8710548 469.84760437 -85.74214857 470.69526066 -84.61328125 471.54296875 C-62.52501704 487.92175038 -38.20611885 498.96699197 -12 507 C-10.47650651 507.48810653 -8.95306436 507.97637333 -7.4296875 508.46484375 C36.05932251 521.92513672 84.87555672 519.25229291 128 506 C129.12019531 505.6596875 130.24039062 505.319375 131.39453125 504.96875 C138.18669557 502.80641784 144.56000006 500.03773582 151 497 C152.70826244 496.24983853 154.41659727 495.49984192 156.125 494.75 C182.53144369 482.65172863 205.05623392 465.99581627 226 446 C226.67417969 445.36707031 227.34835937 444.73414063 228.04296875 444.08203125 C233.17982352 439.13325354 237.57581474 433.58272804 242 428 C242.81855469 426.97519531 243.63710938 425.95039062 244.48046875 424.89453125 C265.55512874 398.22370571 280.89863222 367.00032678 289 334 C289.18691406 333.25169922 289.37382813 332.50339844 289.56640625 331.73242188 C304.47843786 270.8850761 292.74782431 204.75492541 260.49633789 151.51171875 C245.88542295 127.92984538 226.90245116 106.0383638 205 89 C204.43748535 88.55043945 203.8749707 88.10087891 203.29541016 87.63769531 C184.75223557 72.83722579 163.39737442 61.23793919 141.203125 52.8515625 C139.4447672 52.17191356 137.71904861 51.40801985 136.0078125 50.6171875 C130.72803766 48.3449685 125.16814935 46.97512835 119.625 45.5 C118.4690332 45.19175293 117.31306641 44.88350586 116.12207031 44.56591797 C96.04351527 39.30991282 76.66518452 37.81295031 55.96899414 37.81469727 C53.0709777 37.81250641 50.17334041 37.79426738 47.27539062 37.77539062 C36.66100275 37.74244887 26.47905575 38.15620782 16 40 Z " fill="#F2F5F6" transform="translate(355,112)"/>
<path d="M0 0 C125.73 0 251.46 0 381 0 C380.03108458 4.84457709 378.91537546 7.11709856 376.3125 11.1875 C375.5816272 12.34479701 374.85116204 13.50235155 374.12109375 14.66015625 C373.07115234 16.31337891 373.07115234 16.31337891 372 18 C368.34925116 23.92923038 364.91409056 29.94247618 361.6015625 36.06640625 C355.70806845 46.86156242 349.41260779 57.43556092 343.20507812 68.05151367 C339.92211182 73.67512962 336.67019365 79.31207752 333.5 85 C329.13632146 92.8292584 324.60767158 100.56041195 320.08203125 108.296875 C317.02912974 113.51720442 313.98861591 118.74260685 311 124 C303.93020305 136.42113579 296.70677305 148.75706483 289.41796875 161.05078125 C288.84328857 162.02015625 288.2686084 162.98953125 287.67651367 163.98828125 C286.59913767 165.80320561 285.52001879 167.61709711 284.4387207 169.4296875 C281.36937879 174.59700373 278.44525142 179.8240368 275.58496094 185.10961914 C272.68694084 190.39453287 269.64832504 195.59859908 266.625 200.8125 C265.2845992 203.12858439 263.94508173 205.44517847 262.60546875 207.76171875 C261.97431152 208.85274902 261.3431543 209.9437793 260.69287109 211.06787109 C258.76150942 214.41307642 256.84635299 217.76690939 254.9375 221.125 C247.87952906 233.49936463 240.68307213 245.79704018 233.41796875 258.05078125 C232.84328857 259.02015625 232.2686084 259.98953125 231.67651367 260.98828125 C230.59913767 262.80320561 229.52001879 264.61709711 228.4387207 266.4296875 C225.36937879 271.59700373 222.44525142 276.8240368 219.58496094 282.10961914 C216.68694292 287.39452908 213.64844938 292.59867481 210.625 297.8125 C209.29790015 300.10530848 207.97107481 302.39827587 206.64453125 304.69140625 C205.7002124 306.32360107 205.7002124 306.32360107 204.73681641 307.98876953 C202.00104401 312.73195434 199.30126357 317.49522879 196.61328125 322.265625 C194.84632122 325.2604725 192.95300792 328.12367461 191 331 C187.95591262 327.22454098 185.65007736 323.07250948 183.25 318.875 C182.7746582 318.0487915 182.29931641 317.22258301 181.80957031 316.37133789 C180.76399818 314.55394645 179.71945012 312.73596556 178.67578125 310.91748047 C176.33333633 306.8393603 173.98135066 302.7667698 171.62988281 298.69384766 C169.71590631 295.37844265 167.80309968 292.06236527 165.890625 288.74609375 C162.09448092 282.16364071 158.29734227 275.58176187 154.5 269 C153.2499953 266.83333604 151.99999531 264.66666937 150.75 262.5 C150.13125 261.4275 149.5125 260.355 148.875 259.25 C143.25 249.5 143.25 249.5 141.3737793 246.24780273 C140.1279423 244.08840605 138.88201182 241.92906331 137.63598633 239.76977539 C134.44651047 234.24232403 131.25883115 228.71384879 128.07421875 223.18359375 C122.33057942 213.21297467 116.57901353 203.24965849 110.71240234 193.35083008 C106.60581107 186.39040484 102.6585696 179.33961102 98.72802734 172.27856445 C96.10301683 167.59293308 93.39567818 163.00384019 90.48046875 158.4921875 C87.58974313 154.00547811 84.98057621 149.42761333 82.4609375 144.72412109 C80.04273622 140.21504859 77.51820391 135.76627074 75 131.3125 C74.16359985 129.83317993 74.16359985 129.83317993 73.31030273 128.32397461 C67.56089289 118.18337787 61.68558968 108.11760993 55.79248047 98.06005859 C52.73161039 92.83465058 49.67768729 87.60519163 46.625 82.375 C46.03211182 81.35929932 45.43922363 80.34359863 44.82836914 79.29711914 C41.23827447 73.14071334 37.68536673 66.96552826 34.1640625 60.76953125 C32.42960695 57.73381182 30.66649997 54.71548055 28.8984375 51.69921875 C22.00420359 39.93755056 15.21499966 28.12992293 8.61865234 16.19799805 C5.29887803 10.1907573 5.29887803 10.1907573 1.6015625 4.4140625 C0 2 0 2 0 0 Z M112.56884766 42.64013672 C109.83360922 45.95511003 107.37784056 49.42320607 105 53 C104.45085937 53.80566406 103.90171875 54.61132812 103.3359375 55.44140625 C94.16091089 69.72151176 89.65423782 86.15804914 89 103 C88.88591797 104.91232422 88.88591797 104.91232422 88.76953125 106.86328125 C87.695625 131.56904188 97.18588545 156.86303014 113.5 175.3125 C114.99133605 176.88327148 116.49109763 178.44609528 118 180 C118.67289063 180.74636719 119.34578125 181.49273437 120.0390625 182.26171875 C129.44173817 192.35110669 141.10365645 199.32350164 154 204 C154.83144531 204.35578125 155.66289062 204.7115625 156.51953125 205.078125 C180.03311328 214.75806353 207.84376795 212.49554269 231 203 C241.8242159 198.20706197 251.06828541 191.71902256 260 184 C260.75925781 183.34386719 261.51851562 182.68773437 262.30078125 182.01171875 C275.68139531 169.48918014 285.28286489 151.58417199 290 134 C290.17515137 133.40566162 290.35030273 132.81132324 290.53076172 132.19897461 C292.50450475 124.72040769 292.39588783 117.11681792 292.375 109.4375 C292.37478851 108.72379242 292.37457703 108.01008484 292.37435913 107.27474976 C292.34286256 96.64846332 291.67798311 87.06286469 288 77 C287.66097656 75.92105469 287.32195312 74.84210938 286.97265625 73.73046875 C282.34922128 60.12341992 274.04938351 48.15591408 264 38 C262.90558594 36.83210938 262.90558594 36.83210938 261.7890625 35.640625 C243.38449325 16.39654908 219.55549587 8.67363839 193.578125 6.74609375 C162.37372849 6.09959382 133.06526934 19.15071999 112.56884766 42.64013672 Z " fill="#F3F5F6" transform="translate(220,277)"/>
<path d="M0 0 C8.42660662 7.09608978 13.98148321 15.54714688 17.34765625 26 C17.69570313 26.91007812 18.04375 27.82015625 18.40234375 28.7578125 C22.0569451 41.29218904 19.1582511 57.15345275 13.0546875 68.45703125 C4.64774281 80.98087791 -6.90638204 91.11586577 -21.90234375 94.25 C-37.13828737 96.60541747 -51.72771917 94.77028096 -64.65234375 86 C-75.52765043 77.84351999 -83.10228086 67.15725865 -86.65234375 54 C-87.19173054 50.02169027 -87.27391034 46.13571815 -87.21484375 42.125 C-87.20461182 41.0736084 -87.19437988 40.0222168 -87.18383789 38.93896484 C-86.76378946 23.54829531 -80.02755565 11.4888172 -68.94921875 0.8828125 C-48.32483672 -16.02356869 -21.1818274 -15.97215851 0 0 Z " fill="#F4F6F6" transform="translate(444.65234375,344)"/>
<path d="M0 0 C125.73 0 251.46 0 381 0 C380.67 1.65 380.34 3.3 380 5 C379.67 4.01 379.34 3.02 379 2 C254.92 2 130.84 2 3 2 C2.67 2.99 2.34 3.98 2 5 C1.34 3.35 0.68 1.7 0 0 Z " fill="#ACD3E5" transform="translate(220,277)"/>
<path d="M0 0 C0 0.33 0 0.66 0 1 C-22.51845811 4.52483007 -44.24773436 5.63559291 -67 4 C-67 3.67 -67 3.34 -67 3 C-65.88254395 2.98018066 -64.76508789 2.96036133 -63.61376953 2.93994141 C-59.37529963 2.86252932 -55.1371144 2.77405114 -50.89892578 2.68261719 C-49.0819266 2.64487631 -47.2648665 2.60994021 -45.44775391 2.578125 C-35.26728161 2.39783993 -25.21908197 2.01669789 -15.1164856 0.67959595 C-10.04072938 0.02344885 -5.11979378 -0.07716391 0 0 Z " fill="#3A7EA0" transform="translate(455,624)"/>
<path d="M0 0 C0.495 1.485 0.495 1.485 1 3 C-24.89379554 31.38529477 -24.89379554 31.38529477 -35 36 C-32.00099406 32.32621772 -29.0652627 28.95187042 -25.43359375 25.8984375 C-20.23305951 21.40532447 -15.40946723 16.55571033 -10.5625 11.6875 C-9.65306641 10.78193359 -8.74363281 9.87636719 -7.80664062 8.94335938 C-6.94361328 8.07904297 -6.08058594 7.21472656 -5.19140625 6.32421875 C-4.40967041 5.54135498 -3.62793457 4.75849121 -2.82250977 3.9519043 C-0.94470633 2.12569468 -0.94470633 2.12569468 0 0 Z " fill="#6BBFD2" transform="translate(614,565)"/>
<path d="M0 0 C0.33 0 0.66 0 1 0 C3.16540278 8.43743118 3.43686632 16.76219857 3.4375 25.4375 C3.43956451 26.14088501 3.44162903 26.84427002 3.4437561 27.56896973 C3.4291134 55.40910264 3.4291134 55.40910264 -5 65 C-3.29090909 56.81818182 -3.29090909 56.81818182 -2 53.1875 C0.99993693 43.62520104 1.36577675 33.69769234 1.625 23.75 C1.68300781 21.89955078 1.68300781 21.89955078 1.7421875 20.01171875 C1.8353276 17.00795063 1.92114531 14.00417122 2 11 C1.34 11 0.68 11 0 11 C0 7.37 0 3.74 0 0 Z " fill="#6FC1D3" transform="translate(509,360)"/>
<path d="M0 0 C0.33 0 0.66 0 1 0 C0.88201748 4.11193736 0.75778941 8.22363288 0.62768555 12.33520508 C0.58428566 13.73489199 0.54261436 15.13463359 0.50268555 16.53442383 C0.44510555 18.54261495 0.38086 20.55061149 0.31640625 22.55859375 C0.26141968 24.37315063 0.26141968 24.37315063 0.20532227 26.22436523 C0 29 0 29 -1 30 C-1.24545998 33.00461202 -1.38405999 36.00824354 -1.5234375 39.01953125 C-2.04251609 42.26589978 -2.97308924 43.49951511 -5 46 C-3.18530755 21.98887637 -3.18530755 21.98887637 -1.9375 10.625 C-1.85838379 9.88975098 -1.77926758 9.15450195 -1.69775391 8.39697266 C-1.36163116 5.44515253 -0.94293161 2.82879483 0 0 Z " fill="#6EC0D2" transform="translate(129,524)"/>
<path d="M0 0 C0.495 1.485 0.495 1.485 1 3 C-0.5870286 5.24415764 -2.175817 7.21049529 -4 9.25 C-4.53310791 9.85827637 -5.06621582 10.46655273 -5.61547852 11.09326172 C-13.42428774 19.88279551 -21.63124736 28.85343726 -31 36 C-31.66 35.67 -32.32 35.34 -33 35 C-32.05640625 34.14019531 -31.1128125 33.28039062 -30.140625 32.39453125 C-19.21663152 22.36693142 -8.58383567 12.16043386 0 0 Z " fill="#D6F0FB" transform="translate(600,535)"/>
<path d="M0 0 C4.71391399 -0.074557 9.42747929 -0.12879273 14.1418457 -0.16479492 C15.74314356 -0.17981466 17.34440075 -0.20023663 18.94555664 -0.22631836 C21.25677571 -0.26300438 23.56744756 -0.27979435 25.87890625 -0.29296875 C26.58648575 -0.30845261 27.29406525 -0.32393646 28.02308655 -0.33988953 C33.13453213 -0.34159235 36.5093594 0.77647892 41 3 C37.94278719 4.52860641 35.46703587 3.58533383 32.125 3.0625 C20.96987416 1.44510009 10.20780989 1.98768169 -1 3 C-0.67 2.01 -0.34 1.02 0 0 Z " fill="#CFF1F7" transform="translate(393,283)"/>
<path d="M0 0 C0.93423645 3.01031744 1.04449911 3.86650268 0 7 C-1.50223092 20.95054215 0.18395125 32.8052267 7.76171875 44.78515625 C8.17035156 45.51605469 8.57898438 46.24695313 9 47 C8.67 47.66 8.34 48.32 8 49 C7.06731525 47.74087558 6.15503358 46.46664399 5.25 45.1875 C4.73953125 44.47980469 4.2290625 43.77210938 3.703125 43.04296875 C-1.16103681 34.35218423 -2.61005888 26.50984462 -2.375 16.625 C-2.37371094 15.57183594 -2.37242187 14.51867187 -2.37109375 13.43359375 C-2.31387712 8.41760209 -2.09053083 4.62419163 0 0 Z " fill="#D5F4FA" transform="translate(360,369)"/>
<path d="M0 0 C0.33 0 0.66 0 1 0 C1.02688151 1.64574566 1.04634123 3.29161413 1.0625 4.9375 C1.07410156 5.85402344 1.08570313 6.77054687 1.09765625 7.71484375 C1 10 1 10 0 11 C-0.15888092 13.28988781 -0.25138073 15.58443441 -0.31640625 17.87890625 C-0.33718735 18.5655687 -0.35796844 19.25223114 -0.37937927 19.95970154 C-0.44494143 22.16052935 -0.50379015 24.36147975 -0.5625 26.5625 C-0.60567892 28.05144514 -0.649293 29.54037773 -0.69335938 31.02929688 C-0.8006293 34.68606553 -0.90187772 38.34297318 -1 42 C-3.21956466 38.01006174 -3.2680031 34.54234823 -3.1875 30.0625 C-3.17960449 29.30976807 -3.17170898 28.55703613 -3.16357422 27.78149414 C-3.02148603 18.334631 -2.67885261 9.10809888 0 0 Z " fill="#6CBED0" transform="translate(312,359)"/>
<path d="M0 0 C-7.75 -0.875 -7.75 -0.875 -10 -2 C-18.93969436 -3.43673659 -27.9732263 -3.08763858 -37 -3 C-29.2192461 -10.7807539 -8.032438 -5.35495867 0 0 Z " fill="#D1F2F8" transform="translate(434,338)"/>
<path d="M0 0 C4.14667871 1.38222624 7.55940815 2.66564202 11.375 4.625 C12.24898437 5.07101563 13.12296875 5.51703125 14.0234375 5.9765625 C14.67570313 6.31429687 15.32796875 6.65203125 16 7 C12 8 12 8 3 3 C2.67 11.91 2.34 20.82 2 30 C1.34 30.33 0.68 30.66 0 31 C0 20.77 0 10.54 0 0 Z " fill="#6ABDCF" transform="translate(213,95)"/>
<path d="M0 0 C-3.63 1.98 -7.26 3.96 -11 6 C-11 5.34 -11 4.68 -11 4 C-12.05960938 4.02320313 -13.11921875 4.04640625 -14.2109375 4.0703125 C-15.5989513 4.08906944 -16.9869727 4.10726972 -18.375 4.125 C-19.42300781 4.15013672 -19.42300781 4.15013672 -20.4921875 4.17578125 C-22.32897486 4.19344267 -24.16601963 4.10303261 -26 4 C-26.66 3.34 -27.32 2.68 -28 2 C-26.42412109 1.92652344 -26.42412109 1.92652344 -24.81640625 1.8515625 C-15.67916312 1.43960449 -15.67916312 1.43960449 -6.6875 -0.125 C-3 -1 -3 -1 0 0 Z " fill="#DDF8FC" transform="translate(152,499)"/>
<path d="M0 0 C0 3 0 3 -1.3125 4.60546875 C-1.869375 5.12753906 -2.42625 5.64960938 -3 6.1875 C-3.556875 6.71730469 -4.11375 7.24710937 -4.6875 7.79296875 C-5.120625 8.19128906 -5.55375 8.58960938 -6 9 C-5.16807129 9.03758423 -5.16807129 9.03758423 -4.31933594 9.07592773 C-1.79601157 9.19227927 0.72697536 9.31482754 3.25 9.4375 C4.55904297 9.49647461 4.55904297 9.49647461 5.89453125 9.55664062 C6.73886719 9.59853516 7.58320312 9.64042969 8.453125 9.68359375 C9.61569824 9.73858032 9.61569824 9.73858032 10.80175781 9.79467773 C12.9574976 9.99603015 14.91801475 10.41729297 17 11 C17 11.66 17 12.32 17 13 C16.21625 12.83757812 15.4325 12.67515625 14.625 12.5078125 C10.05846862 11.86810444 5.60437678 11.85468657 1 11.875 C0.1234375 11.87113281 -0.753125 11.86726563 -1.65625 11.86328125 C-6.21806549 11.87015145 -10.51177028 12.06987345 -15 13 C-14.28457031 12.43796875 -13.56914063 11.8759375 -12.83203125 11.296875 C-10.03407147 9.02763314 -7.35605345 6.66948846 -4.6875 4.25 C-3.36298828 3.05117188 -3.36298828 3.05117188 -2.01171875 1.828125 C-1.34785156 1.22484375 -0.68398438 0.6215625 0 0 Z " fill="#C4EFF7" transform="translate(686,270)"/>
<path d="M0 0 C-4.47908355 4.47908355 -16.64452566 3.26064833 -22.46679688 3.2734375 C-23.65337891 3.26570313 -24.83996094 3.25796875 -26.0625 3.25 C-27.28388672 3.25773437 -28.50527344 3.26546875 -29.76367188 3.2734375 C-30.92576172 3.27085937 -32.08785156 3.26828125 -33.28515625 3.265625 C-34.86115601 3.26224121 -34.86115601 3.26224121 -36.46899414 3.25878906 C-39 3 -39 3 -41 1 C-40.06486572 1.01571045 -40.06486572 1.01571045 -39.11083984 1.03173828 C-22.80132973 1.2861269 -22.80132973 1.2861269 -6.64453125 -0.66015625 C-4.05517023 -0.99291018 -2.44718929 -0.83519825 0 0 Z " fill="#DEF8FC" transform="translate(436,486)"/>
<path d="M0 0 C0.66 0 1.32 0 2 0 C2.66 2.31 3.32 4.62 4 7 C3.34 6.67 2.68 6.34 2 6 C2 5.34 2 4.68 2 4 C1.27296875 4.63615234 1.27296875 4.63615234 0.53125 5.28515625 C-6.734375 11.64257812 -6.734375 11.64257812 -14 18 C-14.66 17.67 -15.32 17.34 -16 17 C-15.09636719 16.10796875 -14.19273437 15.2159375 -13.26171875 14.296875 C-12.07017921 13.11471766 -10.87878034 11.93241853 -9.6875 10.75 C-9.09259766 10.16347656 -8.49769531 9.57695313 -7.88476562 8.97265625 C-5.48378724 6.58509116 -3.22517904 4.3041634 -1.20703125 1.578125 C-0.80871094 1.05734375 -0.41039062 0.5365625 0 0 Z " fill="#6DC0D2" transform="translate(479,42)"/>
<path d="M0 0 C0.33 0 0.66 0 1 0 C1.33168041 4.7540859 0.59443287 7.05646203 -2 11 C-2.69579454 13.19130534 -2.69579454 13.19130534 -3 15 C-3.66 15 -4.32 15 -5 15 C-4.938125 15.70125 -4.87625 16.4025 -4.8125 17.125 C-5.04488737 20.68827295 -6.35831708 22.84291745 -8 26 C-8.77059882 28.31646675 -9.38511085 30.63504172 -10 33 C-10.33 33 -10.66 33 -11 33 C-11.24113878 28.38391471 -10.55096669 25.14360437 -8.8125 20.875 C-8.36003906 19.75222656 -7.90757812 18.62945312 -7.44140625 17.47265625 C-6.96574219 16.32667969 -6.49007812 15.18070313 -6 14 C-5.30197266 12.29650391 -5.30197266 12.29650391 -4.58984375 10.55859375 C-1.32801724 2.65603448 -1.32801724 2.65603448 0 0 Z " fill="#6EC0D2" transform="translate(212,126)"/>
<path d="M0 0 C7.75 0.875 7.75 0.875 10 2 C12.03232634 2.08527628 14.06747006 2.10716135 16.1015625 2.09765625 C17.91914062 2.09282227 17.91914062 2.09282227 19.7734375 2.08789062 C21.04445313 2.07951172 22.31546875 2.07113281 23.625 2.0625 C25.543125 2.05573242 25.543125 2.05573242 27.5 2.04882812 C30.66671292 2.03701203 33.83333356 2.02053815 37 2 C36.01 4.31 35.02 6.62 34 9 C33.505 7.02 33.505 7.02 33 5 C31.87356079 4.97812622 31.87356079 4.97812622 30.72436523 4.95581055 C27.29491338 4.88096402 23.86639605 4.78442346 20.4375 4.6875 C19.25607422 4.66494141 18.07464844 4.64238281 16.85742188 4.61914062 C10.52671803 4.42407692 5.59357815 4.06373664 0 1 C0 0.67 0 0.34 0 0 Z " fill="#6BBDD0" transform="translate(670,191)"/>
<path d="M0 0 C2.56561005 2.50679951 4.7864464 5.17581093 7 8 C6.67 8.66 6.34 9.32 6 10 C5.01 9.34 4.02 8.68 3 8 C3.10699219 9.12019531 3.21398437 10.24039063 3.32421875 11.39453125 C3.4461527 12.86711817 3.56720032 14.33977867 3.6875 15.8125 C3.79674805 16.91948242 3.79674805 16.91948242 3.90820312 18.04882812 C4.33135078 23.54974762 4.33135078 23.54974762 2.51953125 26.01171875 C1.76736328 26.50091797 1.76736328 26.50091797 1 27 C1.01160156 25.88882813 1.02320313 24.77765625 1.03515625 23.6328125 C1.09238598 15.67698604 1.00419086 7.90800301 0 0 Z " fill="#D6F7FB" transform="translate(519,652)"/>
<path d="M0 0 C0.33 0.66 0.66 1.32 1 2 C1.66 2 2.32 2 3 2 C3.33 10.25 3.66 18.5 4 27 C5.32 27.33 6.64 27.66 8 28 C5.69 28.99 3.38 29.98 1 31 C1.01160156 29.76765625 1.02320313 28.5353125 1.03515625 27.265625 C1.09431789 18.12237886 1.017297 9.10117496 0 0 Z " fill="#77C4D5" transform="translate(212,656)"/>
<path d="M0 0 C3 1 3 1 4.1796875 2.734375 C5.13874367 5.38319681 5.19893014 7.44065467 5.125 10.25 C5.10695312 11.14203125 5.08890625 12.0340625 5.0703125 12.953125 C5.03550781 13.96632813 5.03550781 13.96632813 5 15 C5.50015625 14.67257812 6.0003125 14.34515625 6.515625 14.0078125 C9.91792104 12.6276358 13.14350651 12.78637162 16.75 12.875 C17.44738281 12.88402344 18.14476562 12.89304687 18.86328125 12.90234375 C20.57566958 12.92580112 22.28788004 12.96166896 24 13 C24 13.66 24 14.32 24 15 C22.85724609 14.93039062 22.85724609 14.93039062 21.69140625 14.859375 C14.45125422 14.60628604 9.3231572 15.42326461 3 19 C3.03480469 18.13117187 3.06960937 17.26234375 3.10546875 16.3671875 C3.42754402 7.68780047 3.42754402 7.68780047 0 0 Z " fill="#D5F5FB" transform="translate(250,608)"/>
<path d="M0 0 C0.9075 0.495 1.815 0.99 2.75 1.5 C7.95973205 3.78798541 13.425617 3.24714013 19 3 C18.71125 3.51046875 18.4225 4.0209375 18.125 4.546875 C14.77214204 11.1128885 14.55625405 16.71517068 15 24 C14.34 24 13.68 24 13 24 C12.94588876 21.58303128 12.90627722 19.16728213 12.875 16.75 C12.85824219 16.06808594 12.84148438 15.38617188 12.82421875 14.68359375 C12.78786518 10.9391765 12.92055651 8.17647273 15 5 C14.00419922 5.05220703 14.00419922 5.05220703 12.98828125 5.10546875 C3.90455531 5.38394794 3.90455531 5.38394794 0 2 C0 1.34 0 0.68 0 0 Z " fill="#D3F5FB" transform="translate(628,230)"/>
<path d="M0 0 C3.28601719 1.6430086 3.89518101 4.71565665 5.171875 8.03125 C7.06704745 14.82526444 6.92800059 21.57011071 4 28 C5.98 28.33 7.96 28.66 10 29 C10 29.33 10 29.66 10 30 C6.37 30.33 2.74 30.66 -1 31 C-0.175 29.700625 0.65 28.40125 1.5 27.0625 C4.17545698 22.17655151 5.00589405 18.49235956 4 13 C3.08138385 10.03125339 2.0415902 7.16517581 0.875 4.28515625 C0 2 0 2 0 0 Z " fill="#DDF7FC" transform="translate(175,518)"/>
<path d="M0 0 C2.0625 0.4375 2.0625 0.4375 4 1 C-17.83561644 11 -17.83561644 11 -26 11 C-25.67 10.01 -25.34 9.02 -25 8 C-22.03 8 -19.06 8 -16 8 C-16 7.34 -16 6.68 -16 6 C-15.01 5.731875 -14.02 5.46375 -13 5.1875 C-5.97012364 3.49281146 -5.97012364 3.49281146 0 0 Z " fill="#72C2D4" transform="translate(455,475)"/>
<path d="M0 0 C0.66 0 1.32 0 2 0 C3.4375 2.01171875 3.4375 2.01171875 5 4.6875 C5.515625 5.55761719 6.03125 6.42773438 6.5625 7.32421875 C7.91214843 9.83647195 9.00011557 12.33203915 10 15 C10.99 14.67 11.98 14.34 13 14 C12.34 17.63 11.68 21.26 11 25 C9.04507187 22.06760781 8.51221618 20.36156881 7.75 17 C6.13961325 10.75036439 3.29504541 5.51306951 0 0 Z " fill="#D6F6FB" transform="translate(400,83)"/>
<path d="M0 0 C1.32963842 3.98891525 0.38405007 7.18462836 -0.4375 11.1875 C-0.58509766 11.93708984 -0.73269531 12.68667969 -0.88476562 13.45898438 C-1.24972791 15.30734174 -1.62397411 17.15386161 -2 19 C-2.33 19 -2.66 19 -3 19 C-3.33 16.69 -3.66 14.38 -4 12 C-4.99 12.99 -5.98 13.98 -7 15 C-7.66 14.67 -8.32 14.34 -9 14 C-8.51789063 13.32453125 -8.03578125 12.6490625 -7.5390625 11.953125 C-6.90742188 11.06109375 -6.27578125 10.1690625 -5.625 9.25 C-4.99851562 8.36828125 -4.37203125 7.4865625 -3.7265625 6.578125 C-2.28519059 4.42585021 -1.08501907 2.34539477 0 0 Z " fill="#DAF7FB" transform="translate(303,649)"/>
<path d="M0 0 C0 0.66 0 1.32 0 2 C-10.56 2 -21.12 2 -32 2 C-31.67 1.34 -31.34 0.68 -31 0 C-26.90682137 -0.16754147 -22.81343505 -0.32810824 -18.71972656 -0.48217773 C-17.32674778 -0.53559149 -15.93384107 -0.59092043 -14.54101562 -0.64819336 C-12.54056398 -0.73012069 -10.5398125 -0.80462098 -8.5390625 -0.87890625 C-6.73236084 -0.94960327 -6.73236084 -0.94960327 -4.88916016 -1.02172852 C-2 -1 -2 -1 0 0 Z " fill="#76C1D2" transform="translate(707,587)"/>
<path d="M0 0 C2.59843582 1.29921791 2.94994266 2.31591313 4 5 C4.25878906 7.57788086 4.25878906 7.57788086 4.265625 10.46484375 C4.26820313 11.51220703 4.27078125 12.55957031 4.2734375 13.63867188 C4.26570313 14.72728516 4.25796875 15.81589844 4.25 16.9375 C4.25773437 18.02224609 4.26546875 19.10699219 4.2734375 20.22460938 C4.27085937 21.27326172 4.26828125 22.32191406 4.265625 23.40234375 C4.26336914 24.35616943 4.26111328 25.30999512 4.25878906 26.29272461 C3.98219737 29.18623899 3.20381542 31.36792394 2 34 C1.13211494 31.49277649 1.00191322 29.98897467 1.4609375 27.34375 C2.06663064 23.5866969 2.19109326 19.91947733 2.1875 16.125 C2.18814453 15.42117188 2.18878906 14.71734375 2.18945312 13.9921875 C2.13854357 8.9937953 1.57510871 4.72532614 0 0 Z " fill="#71C1D2" transform="translate(461,368)"/>
<path d="M0 0 C3.04172719 -0.0271045 6.08320997 -0.04688964 9.125 -0.0625 C9.9809375 -0.07087891 10.836875 -0.07925781 11.71875 -0.08789062 C16.26678411 -0.10538306 20.52383164 0.06807642 25 1 C25 1.66 25 2.32 25 3 C21.95807987 2.8584453 18.91653653 2.71190099 15.875 2.5625 C15.0190625 2.52318359 14.163125 2.48386719 13.28125 2.44335938 C8.78278208 2.21843598 4.43193793 1.86459117 0 1 C0 0.67 0 0.34 0 0 Z " fill="#73C3D4" transform="translate(554,673)"/>
<path d="M0 0 C0.51949219 0.33773438 1.03898438 0.67546875 1.57421875 1.0234375 C5.28848007 3.39891701 8.80400915 5.55762815 13 7 C9.78876631 8.07041123 8.39600592 7.93878878 5.11328125 7.44140625 C4.17548828 7.30283203 3.23769531 7.16425781 2.27148438 7.02148438 C1.29501953 6.87001953 0.31855469 6.71855469 -0.6875 6.5625 C-1.67556641 6.41490234 -2.66363281 6.26730469 -3.68164062 6.11523438 C-6.12211013 5.74975343 -8.56140835 5.37777429 -11 5 C-11 4.67 -11 4.34 -11 4 C-7.04 4 -3.08 4 1 4 C0.67 2.68 0.34 1.36 0 0 Z " fill="#DDF8FD" transform="translate(140,276)"/>
<path d="M0 0 C0.33 0.99 0.66 1.98 1 3 C-4.91331799 9.21830287 -11.2838805 14.66661098 -18 20 C-18.66 19.67 -19.32 19.34 -20 19 C-19.04738281 18.11957031 -18.09476563 17.23914063 -17.11328125 16.33203125 C-15.84630608 15.1589061 -14.57938169 13.9857261 -13.3125 12.8125 C-12.68666016 12.23435547 -12.06082031 11.65621094 -11.41601562 11.06054688 C-7.87001289 7.77446057 -4.3932742 4.44363819 -1 1 C-0.67 0.67 -0.34 0.34 0 0 Z " fill="#D7F5FA" transform="translate(249,174)"/>
<path d="M0 0 C0.33 0 0.66 0 1 0 C1 10.23 1 20.46 1 31 C-0.32 30.34 -1.64 29.68 -3 29 C-2.34 29 -1.68 29 -1 29 C-1.00523682 28.15703369 -1.01047363 27.31406738 -1.01586914 26.44555664 C-1.03287826 23.32772064 -1.04543406 20.20990823 -1.05493164 17.09204102 C-1.05997057 15.74079614 -1.06680177 14.38955674 -1.07543945 13.03833008 C-1.08752419 11.09979566 -1.09269828 9.161222 -1.09765625 7.22265625 C-1.10289307 6.05484619 -1.10812988 4.88703613 -1.11352539 3.68383789 C-1 1 -1 1 0 0 Z " fill="#79C3D3" transform="translate(608,656)"/>
<path d="M0 0 C2.52480693 2.52480693 2.55738633 4.13823034 3.125 7.625 C3.29257812 8.62789062 3.46015625 9.63078125 3.6328125 10.6640625 C3.75398438 11.43492187 3.87515625 12.20578125 4 13 C3.01 12.34 2.02 11.68 1 11 C0.34 12.65 -0.32 14.3 -1 16 C-1.66 16 -2.32 16 -3 16 C-2.01 10.72 -1.02 5.44 0 0 Z " fill="#DCF8FC" transform="translate(410,674)"/>
<path d="M0 0 C0.33 0 0.66 0 1 0 C1.06058594 1.0621875 1.12117188 2.124375 1.18359375 3.21875 C1.79270238 13.63715103 1.79270238 13.63715103 3 24 C0.51137122 20.76478258 -1.75421558 17.40739705 -4 14 C-3.34 14 -2.68 14 -2 14 C-0.64908472 11.29816945 -0.66141942 8.88191794 -0.4375 5.875 C-0.35371094 4.77929688 -0.26992188 3.68359375 -0.18359375 2.5546875 C-0.12300781 1.71164063 -0.06242187 0.86859375 0 0 Z " fill="#BFEEF6" transform="translate(300,107)"/>
<path d="M0 0 C0.33 0 0.66 0 1 0 C1.54634024 14.58930802 1.54634024 14.58930802 -2 21 C-2.33 21.928125 -2.66 22.85625 -3 23.8125 C-4 26 -4 26 -7 28 C-6.08209092 25.63966236 -5.17320334 23.33023205 -3.99609375 21.0859375 C-0.91264913 14.6288417 -0.55802958 7.03410975 0 0 Z " fill="#D8F6FB" transform="translate(694,242)"/>
<path d="M0 0 C3.27286682 2.7819368 4.96427697 6.27954067 7 10 C4.02189474 8.94890403 1.68812599 7.78766025 -0.9375 6 C-3.93353271 4.04340721 -6.57680379 2.97805606 -10 2 C-7.83032311 1.04534217 -6.43671207 0.85598788 -4.17578125 1.6015625 C-2.4315257 2.35870385 -0.71372869 3.17609198 1 4 C0.67 2.68 0.34 1.36 0 0 Z " fill="#CCF3F9" transform="translate(204,181)"/>
<path d="M0 0 C4.49797113 1.68673918 8.72886302 3.81673892 13 6 C9.98968256 6.93423645 9.13349732 7.04449911 6 6 C6.99 7.485 6.99 7.485 8 9 C7.67 9.99 7.34 10.98 7 12 C5.83061933 10.18924982 4.66456267 8.37635257 3.5 6.5625 C2.8503125 5.55316406 2.200625 4.54382813 1.53125 3.50390625 C0 1 0 1 0 0 Z " fill="#CEF3FA" transform="translate(611,591)"/>
<path d="M0 0 C0.33 0 0.66 0 1 0 C1 6.6 1 13.2 1 20 C0.34 20 -0.32 20 -1 20 C-2.52635903 16.94728195 -1.8744707 13.8773419 -1.625 10.5625 C-1.58117187 9.88123047 -1.53734375 9.19996094 -1.4921875 8.49804688 C-1.27875659 5.47147803 -0.96382381 2.89147144 0 0 Z " fill="#D1F1F6" transform="translate(213,668)"/>
<path d="M0 0 C0.66 0.33 1.32 0.66 2 1 C1.67 1.99 1.34 2.98 1 4 C0.93062938 6.22818441 0.91542916 8.45834524 0.9375 10.6875 C0.94652344 11.86699219 0.95554687 13.04648437 0.96484375 14.26171875 C0.97644531 15.16535156 0.98804688 16.06898438 1 17 C-1.91517292 15.92598892 -3.77810176 15.22189824 -6 13 C-4.68 13 -3.36 13 -2 13 C-2.061875 11.453125 -2.061875 11.453125 -2.125 9.875 C-2.00424851 6.13170373 -1.35127982 3.46265453 0 0 Z " fill="#CDF0F7" transform="translate(568,610)"/>
<path d="M0 0 C0.66 0 1.32 0 2 0 C0.41332422 3.90285767 -2.13350481 6.33520982 -5.125 9.25 C-6.03507812 10.14203125 -6.94515625 11.0340625 -7.8828125 11.953125 C-8.58148438 12.62859375 -9.28015625 13.3040625 -10 14 C-10.66 13.67 -11.32 13.34 -12 13 C-10.18777319 11.02058257 -8.37523172 9.04145495 -6.5625 7.0625 C-6.04623047 6.49853516 -5.52996094 5.93457031 -4.99804688 5.35351562 C-1.11328125 1.11328125 -1.11328125 1.11328125 0 0 Z " fill="#6CC0D2" transform="translate(343,309)"/>
<path d="M0 0 C1.93166016 0.01740234 1.93166016 0.01740234 3.90234375 0.03515625 C5.19269531 0.04417969 6.48304688 0.05320313 7.8125 0.0625 C8.81152344 0.07410156 9.81054688 0.08570313 10.83984375 0.09765625 C10.83984375 0.42765625 10.83984375 0.75765625 10.83984375 1.09765625 C9.51919922 1.29681641 9.51919922 1.29681641 8.171875 1.5 C6.42970703 1.76490234 6.42970703 1.76490234 4.65234375 2.03515625 C2.92951172 2.29619141 2.92951172 2.29619141 1.171875 2.5625 C-0.84191414 2.88593389 -2.85131776 3.24231796 -4.84765625 3.66015625 C-7.96670043 4.25024569 -10.99485945 4.15972089 -14.16015625 4.09765625 C-13.83015625 3.43765625 -13.50015625 2.77765625 -13.16015625 2.09765625 C-11.12890625 1.71875 -11.12890625 1.71875 -8.66015625 1.53515625 C-5.2778775 1.27292261 -3.25500208 0.10058721 0 0 Z " fill="#C8E5F1" transform="translate(370.16015625,150.90234375)"/>
<path d="M0 0 C0.98097656 0.16371094 1.96195313 0.32742188 2.97265625 0.49609375 C7.14118966 1.09159852 11.23401136 1.11249575 15.4375 1.0625 C16.16904297 1.05798828 16.90058594 1.05347656 17.65429688 1.04882812 C19.43623419 1.03718148 21.21812863 1.01925191 23 1 C22.67 1.66 22.34 2.32 22 3 C15.07 3 8.14 3 1 3 C0.67 2.01 0.34 1.02 0 0 Z " fill="#D5F4FA" transform="translate(625,598)"/>
<path d="M0 0 C2.0625 0.4375 2.0625 0.4375 4 1 C-2.12610791 3.92382423 -8.40095271 5.47214176 -15 7 C-12.70681254 3.56021882 -11.84177166 3.19521785 -8 2 C-5.66905466 1.6503582 -3.33595238 1.31445513 -1 1 C-0.67 0.67 -0.34 0.34 0 0 Z " fill="#76C4D5" transform="translate(665,591)"/>
<path d="M0 0 C0.33 0.99 0.66 1.98 1 3 C0.03126968 4.35622245 -0.9747998 5.68594432 -2 7 C-2.74484664 8.87404476 -3.43092224 10.77231076 -4.0625 12.6875 C-4.65287303 14.47758689 -5.28754021 16.25490618 -6 18 C-6.66 18.33 -7.32 18.66 -8 19 C-6.87969415 11.83004254 -4.23301849 5.8386462 0 0 Z " fill="#6DC0D2" transform="translate(420,83)"/>
<path d="M0 0 C0.66 0 1.32 0 2 0 C3.20272819 2.40545638 3.10071472 3.94996953 3.0625 6.625 C3.05347656 7.44226563 3.04445313 8.25953125 3.03515625 9.1015625 C3.02355469 9.72804688 3.01195312 10.35453125 3 11 C3.66 11 4.32 11 5 11 C5 13.31 5 15.62 5 18 C3.15963319 15.23944978 2.31655886 13.25401883 1.375 10.125 C1.11460937 9.28195312 0.85421875 8.43890625 0.5859375 7.5703125 C-0.00963022 4.95775542 -0.10525251 2.66958629 0 0 Z " fill="#78C9DB" transform="translate(410,669)"/>
<path d="M0 0 C0.33 0 0.66 0 1 0 C1.08724706 3.4165052 1.14047325 6.83272313 1.1875 10.25 C1.22520508 11.70212891 1.22520508 11.70212891 1.26367188 13.18359375 C1.27333984 14.11816406 1.28300781 15.05273438 1.29296875 16.015625 C1.3086792 16.87446289 1.32438965 17.73330078 1.34057617 18.61816406 C1 21 1 21 -2 25 C-1.34 16.75 -0.68 8.5 0 0 Z " fill="#7DC8D9" transform="translate(126,545)"/>
<path d="M0 0 C0.33 0.99 0.66 1.98 1 3 C-0.74294474 5.3681635 -2.48379005 7.50699905 -4.4375 9.6875 C-4.96666016 10.29400391 -5.49582031 10.90050781 -6.04101562 11.52539062 C-7.35161048 13.02490005 -8.67466418 14.51350334 -10 16 C-10.66 15.34 -11.32 14.68 -12 14 C-11.30132813 13.24074219 -10.60265625 12.48148438 -9.8828125 11.69921875 C-8.96343578 10.69540947 -8.04417079 9.69149785 -7.125 8.6875 C-6.66480469 8.18798828 -6.20460938 7.68847656 -5.73046875 7.17382812 C-3.61393392 4.85790957 -1.74473617 2.61710426 0 0 Z " fill="#CDE8F4" transform="translate(600,535)"/>
<path d="M0 0 C4.875 1.75 4.875 1.75 6 4 C4.68 4 3.36 4 2 4 C2.05220703 5.04800781 2.05220703 5.04800781 2.10546875 6.1171875 C2.13253906 7.02726563 2.15960938 7.93734375 2.1875 8.875 C2.22230469 9.77992188 2.25710937 10.68484375 2.29296875 11.6171875 C2.19628906 12.40351563 2.09960938 13.18984375 2 14 C1.01 14.66 0.02 15.32 -1 16 C-0.9278125 15.26394531 -0.855625 14.52789062 -0.78125 13.76953125 C-0.6884375 12.79371094 -0.595625 11.81789062 -0.5 10.8125 C-0.4071875 9.84957031 -0.314375 8.88664063 -0.21875 7.89453125 C-0.01875156 5.24812333 0.03879183 2.65239135 0 0 Z " fill="#CFF3FA" transform="translate(253,155)"/>
<path d="M0 0 C6.6 0.66 13.2 1.32 20 2 C20 2.33 20 2.66 20 3 C18.84371094 3.09087891 18.84371094 3.09087891 17.6640625 3.18359375 C16.66117188 3.26738281 15.65828125 3.35117187 14.625 3.4375 C13.12839844 3.55931641 13.12839844 3.55931641 11.6015625 3.68359375 C9.02072387 3.84965626 9.02072387 3.84965626 7 5 C4.5249829 3.88568235 2.32116581 2.41849022 0 1 C0 0.67 0 0.34 0 0 Z " fill="#B7EAF3" transform="translate(670,498)"/>
<path d="M0 0 C0.33 0 0.66 0 1 0 C1.02685938 2.14576637 1.04633088 4.29162645 1.0625 6.4375 C1.07410156 7.63246094 1.08570313 8.82742188 1.09765625 10.05859375 C1 13 1 13 0 14 C-0.144375 15.155 -0.28875 16.31 -0.4375 17.5 C-0.623125 18.655 -0.80875 19.81 -1 21 C-1.66 21.33 -2.32 21.66 -3 22 C-2.37727768 14.5928819 -1.29512034 7.31805865 0 0 Z " fill="#DBF7FC" transform="translate(512,393)"/>
<path d="M0 0 C0.33 0.66 0.66 1.32 1 2 C0.70351563 2.67417969 0.40703125 3.34835937 0.1015625 4.04296875 C-1.41611031 8.11700534 -1.46151785 11.99725251 -1.625 16.3125 C-1.66367187 17.14845703 -1.70234375 17.98441406 -1.7421875 18.84570312 C-1.83595159 20.89679259 -1.91904245 22.94836515 -2 25 C-2.33 25 -2.66 25 -3 25 C-3.08724706 21.5834948 -3.14047325 18.16727687 -3.1875 14.75 C-3.21263672 13.78191406 -3.23777344 12.81382812 -3.26367188 11.81640625 C-3.27333984 10.88183594 -3.28300781 9.94726562 -3.29296875 8.984375 C-3.3086792 8.12553711 -3.32438965 7.26669922 -3.34057617 6.38183594 C-2.93095949 3.51716184 -1.886136 2.14936836 0 0 Z " fill="#7FCBDA" transform="translate(360,367)"/>
<path d="M0 0 C0 3.69840628 -0.82866944 4.31415433 -3.25 7 C-4.15492188 8.0209375 -4.15492188 8.0209375 -5.078125 9.0625 C-6.93766612 10.93715934 -8.84794211 12.47641919 -11 14 C-11.66 13.67 -12.32 13.34 -13 13 C-12.154375 12.34 -11.30875 11.68 -10.4375 11 C-6.50076779 7.73974683 -3.27623206 3.90627668 0 0 Z " fill="#D8F5FA" transform="translate(206,217)"/>
<path d="M0 0 C0.66 0.33 1.32 0.66 2 1 C1.20890398 2.27118864 0.41709922 3.54193623 -0.375 4.8125 C-0.81585938 5.52019531 -1.25671875 6.22789062 -1.7109375 6.95703125 C-2.78188476 8.65432039 -3.88676239 10.33014358 -5 12 C-4.67 10.02 -4.34 8.04 -4 6 C-4.99 5.67 -5.98 5.34 -7 5 C-4.69 3.35 -2.38 1.7 0 0 Z " fill="#CBF3F9" transform="translate(209,591)"/>
<path d="M0 0 C0.66 0 1.32 0 2 0 C0.52278578 3.45201639 -1.43794001 5.64961936 -4.125 8.25 C-4.84945312 8.95640625 -5.57390625 9.6628125 -6.3203125 10.390625 C-6.87460938 10.92171875 -7.42890625 11.4528125 -8 12 C-8 8.24111186 -7.049166 7.58681685 -4.5625 4.875 C-3.92441406 4.17117188 -3.28632813 3.46734375 -2.62890625 2.7421875 C-1.76410115 1.81724008 -0.89538137 0.89538137 0 0 Z " fill="#68BFD1" transform="translate(142,504)"/>
<path d="M0 0 C0.61230469 0.19335938 1.22460938 0.38671875 1.85546875 0.5859375 C-9.66617134 6.14174616 -9.66617134 6.14174616 -15.14453125 6.5859375 C-14.81453125 5.5959375 -14.48453125 4.6059375 -14.14453125 3.5859375 C-13.09265625 3.4828125 -12.04078125 3.3796875 -10.95703125 3.2734375 C-7.18192509 2.82712625 -7.18192509 2.82712625 -4.45703125 0.9609375 C-2.14453125 -0.4140625 -2.14453125 -0.4140625 0 0 Z " fill="#73C3D5" transform="translate(283.14453125,153.4140625)"/>
<path d="M0 0 C0.66 0 1.32 0 2 0 C2.33 2.64 2.66 5.28 3 8 C2.01 7.01 1.02 6.02 0 5 C-0.99 5.99 -1.98 6.98 -3 8 C-3.99 7.67 -4.98 7.34 -6 7 C-5.04882866 5.8274869 -4.08882991 4.66212985 -3.125 3.5 C-2.59132813 2.8503125 -2.05765625 2.200625 -1.5078125 1.53125 C-0.76144531 0.77328125 -0.76144531 0.77328125 0 0 Z " fill="#D2F3F9" transform="translate(465,113)"/>
<path d="M0 0 C-0.845625 0.165 -1.69125 0.33 -2.5625 0.5 C-7.33042248 2.58054799 -9.83351918 5.97163683 -13 10 C-13.33 9.34 -13.66 8.68 -14 8 C-12.90344712 6.68113228 -11.79746577 5.37009943 -10.6875 4.0625 C-10.07261719 3.33160156 -9.45773437 2.60070312 -8.82421875 1.84765625 C-5.8744053 -1.1400563 -3.81079465 -1.18266041 0 0 Z " fill="#6BBFD2" transform="translate(370,660)"/>
<path d="M0 0 C0.33 0 0.66 0 1 0 C1.33 3.3 1.66 6.6 2 10 C3.32 10.33 4.64 10.66 6 11 C2.535 12.485 2.535 12.485 -1 14 C-0.67 9.38 -0.34 4.76 0 0 Z " fill="#6ABCCE" transform="translate(214,673)"/>
<path d="M0 0 C0.66 0.33 1.32 0.66 2 1 C1.525625 2.051875 1.05125 3.10375 0.5625 4.1875 C-0.69323741 7.10175851 -1.52234381 9.84746914 -2 13 C-4.52588702 10.63707344 -5.88820837 9.33537489 -7 6 C-6.34 6 -5.68 6 -5 6 C-5 6.66 -5 7.32 -5 8 C-1.75267068 6.37633534 -1.29844864 3.24612161 0 0 Z " fill="#CDF4FA" transform="translate(469,657)"/>
<path d="M0 0 C0.33 0 0.66 0 1 0 C1.67012098 6.19861907 -0.75052827 11.35623611 -3 17 C-3.66 17 -4.32 17 -5 17 C-3.63172347 11.21113776 -1.95088223 5.61854082 0 0 Z " fill="#6BBFD1" transform="translate(666,472)"/>
<path d="M0 0 C0.66 0.33 1.32 0.66 2 1 C0.54782324 2.50596108 -0.91192861 4.00462104 -2.375 5.5 C-3.18710938 6.3353125 -3.99921875 7.170625 -4.8359375 8.03125 C-7 10 -7 10 -9 10 C-7.61811547 6.78956118 -6.07578097 4.95063635 -3.375 2.75 C-2.74335937 2.22921875 -2.11171875 1.7084375 -1.4609375 1.171875 C-0.73777344 0.59179688 -0.73777344 0.59179688 0 0 Z " fill="#6BBFD2" transform="translate(109,397)"/>
<path d="M0 0 C0 0.66 0 1.32 0 2 C-3.53186832 4.15059309 -6.66287993 4.3797728 -10.75 4.625 C-11.92046875 4.69976562 -13.0909375 4.77453125 -14.296875 4.8515625 C-15.18890625 4.90054688 -16.0809375 4.94953125 -17 5 C-17.33 4.01 -17.66 3.02 -18 2 C-17.26394531 2.02320313 -16.52789062 2.04640625 -15.76953125 2.0703125 C-14.30580078 2.09738281 -14.30580078 2.09738281 -12.8125 2.125 C-11.36810547 2.15980469 -11.36810547 2.15980469 -9.89453125 2.1953125 C-6.33106069 1.95486239 -3.47184265 0 0 0 Z " fill="#D2F5FB" transform="translate(193,231)"/>
<path d="M0 0 C0 3.83764027 -1.26535335 5.11486085 -3.5 8.1875 C-4.1496875 9.08855469 -4.799375 9.98960938 -5.46875 10.91796875 C-5.9740625 11.60503906 -6.479375 12.29210937 -7 13 C-7.33 12.01 -7.66 11.02 -8 10 C-6.6015625 7.7734375 -6.6015625 7.7734375 -4.625 5.375 C-3.97789062 4.57835938 -3.33078125 3.78171875 -2.6640625 2.9609375 C-1.80501859 1.94863693 -0.93880479 0.93880479 0 0 Z " fill="#6DC2D3" transform="translate(528,117)"/>
<path d="M0 0 C0.66 0 1.32 0 2 0 C2.66 1.65 3.32 3.3 4 5 C5.32 4.67 6.64 4.34 8 4 C6.68 6.31 5.36 8.62 4 11 C1.6870518 8.6870518 1.50419025 7.52095125 0.875 4.375 C0.70742188 3.55773437 0.53984375 2.74046875 0.3671875 1.8984375 C0.24601562 1.27195312 0.12484375 0.64546875 0 0 Z " fill="#CEF3F9" transform="translate(352,659)"/>
<path d="M0 0 C0 3.58371915 -0.74478337 4.27587204 -2.9375 7 C-4.90175833 9.45184019 -5.99335342 10.98006027 -7 14 C-7.66 14 -8.32 14 -9 14 C-7.34966761 8.71893635 -3.90667286 3.90667286 0 0 Z " fill="#D5F4FA" transform="translate(372,349)"/>
<path d="M0 0 C2.27649812 4.4012297 3.12094458 7.71971064 3.0625 12.6875 C3.05347656 13.68136719 3.04445313 14.67523438 3.03515625 15.69921875 C3.02355469 16.45847656 3.01195312 17.21773438 3 18 C2.67 18 2.34 18 2 18 C0.59545452 11.88019467 -0.23268915 6.28260706 0 0 Z " fill="#D4EDF7" transform="translate(646,340)"/>
<path d="M0 0 C1.65 0 3.3 0 5 0 C5 0.66 5 1.32 5 2 C5.7425 2.144375 6.485 2.28875 7.25 2.4375 C9.52027739 2.90187492 11.75759479 3.41863569 14 4 C14 4.66 14 5.32 14 6 C8.65155992 5.46515599 4.64203897 3.53309233 0 1 C0 0.67 0 0.34 0 0 Z " fill="#72C2D4" transform="translate(532,151)"/>
<path d="M0 0 C2.56144795 2.56144795 4.77094624 5.15603485 7 8 C6.67 8.66 6.34 9.32 6 10 C4.68 9.01 3.36 8.02 2 7 C1.67 7.99 1.34 8.98 1 10 C0.67 6.7 0.34 3.4 0 0 Z " fill="#C5F0F8" transform="translate(519,652)"/>
<path d="M0 0 C3.3 0 6.6 0 10 0 C10 0.66 10 1.32 10 2 C11.98 2 13.96 2 16 2 C16 2.33 16 2.66 16 3 C10.21101581 3.20674944 5.57067277 2.59162079 0 1 C0 0.67 0 0.34 0 0 Z " fill="#337B9F" transform="translate(353,621)"/>
<path d="M0 0 C0.33 0.66 0.66 1.32 1 2 C0.2578125 3.8046875 0.2578125 3.8046875 -0.875 5.875 C-2.3439991 8.57672562 -3.3645044 10.98477618 -4 14 C-4.66 14 -5.32 14 -6 14 C-4.83311977 8.36007889 -3.45387201 4.60516269 0 0 Z " fill="#6EC0D2" transform="translate(675,453)"/>
<path d="M0 0 C-2.97 1.65 -5.94 3.3 -9 5 C-9.99 3.68 -10.98 2.36 -12 1 C-10.56496445 0.63597631 -9.12683494 0.28413409 -7.6875 -0.0625 C-6.88699219 -0.25972656 -6.08648437 -0.45695312 -5.26171875 -0.66015625 C-3 -1 -3 -1 0 0 Z " fill="#BBEEF6" transform="translate(152,499)"/>
<path d="M0 0 C0.33 0 0.66 0 1 0 C1.20852314 6.40629424 1.1583195 11.92972642 -1 18 C-1.33 18 -1.66 18 -2 18 C-2.23268915 11.71739294 -1.40454548 6.11980533 0 0 Z " fill="#D4EEF8" transform="translate(648,420)"/>
<path d="M0 0 C1.19126781 3.57380342 0.7349445 5.50883302 0.0625 9.1875 C-0.13214844 10.27417969 -0.32679688 11.36085938 -0.52734375 12.48046875 C-0.68332031 13.31191406 -0.83929688 14.14335938 -1 15 C-1.33 15 -1.66 15 -2 15 C-3.11808464 8.7107739 -3.04063348 5.70118778 0 0 Z " fill="#AEE8F2" transform="translate(303,649)"/>
<path d="M0 0 C2.56864728 1.28432364 2.946539 2.36634751 4 5 C4 6.32 4 7.64 4 9 C4.99 9.33 5.98 9.66 7 10 C6.01 10.66 5.02 11.32 4 12 C3.3291288 10.3767313 2.66342971 8.75132422 2 7.125 C1.62875 6.22007812 1.2575 5.31515625 0.875 4.3828125 C0 2 0 2 0 0 Z " fill="#7BC4D4" transform="translate(337,728)"/>
<path d="M0 0 C0.66 0.33 1.32 0.66 2 1 C0.8553125 2.051875 0.8553125 2.051875 -0.3125 3.125 C-2.96590478 5.96352604 -4.44000743 8.46949051 -6 12 C-6.71484375 10.265625 -6.71484375 10.265625 -7 8 C-5.56640625 5.859375 -5.56640625 5.859375 -3.5625 3.75 C-2.57443359 2.69039062 -2.57443359 2.69039062 -1.56640625 1.609375 C-1.04949219 1.07828125 -0.53257812 0.5471875 0 0 Z " fill="#6CBFD1" transform="translate(475,653)"/>
<path d="M0 0 C5.00890086 0.61512818 10.00632136 1.2717552 15 2 C15 2.33 15 2.66 15 3 C13.2507786 3.08142927 11.50045458 3.13938541 9.75 3.1875 C8.28820312 3.23970703 8.28820312 3.23970703 6.796875 3.29296875 C3.62531258 2.96075202 2.32959693 2.11327721 0 0 Z " fill="#D3EDF7" transform="translate(364,624)"/>
<path d="M0 0 C2.51239382 3.76859072 3.12663199 6.26239249 3.0625 10.6875 C3.05347656 11.49574219 3.04445312 12.30398438 3.03515625 13.13671875 C3.02355469 13.75160156 3.01195312 14.36648438 3 15 C2.67 15 2.34 15 2 15 C0.53329887 9.77487721 -0.22577402 5.4185766 0 0 Z " fill="#79C6D7" transform="translate(177,525)"/>
<path d="M0 0 C1.68496298 0.96885372 3.35178756 1.96986723 5 3 C5 3.33 5 3.66 5 4 C1.37 4.66 -2.26 5.32 -6 6 C-5.67 5.34 -5.34 4.68 -5 4 C-2.4375 3.375 -2.4375 3.375 0 3 C0 2.01 0 1.02 0 0 Z " fill="#CBF4FA" transform="translate(685,443)"/>
<path d="M0 0 C-3.67807537 1.22602512 -5.88243927 0.70295577 -9.6875 0.0625 C-10.86699219 -0.13214844 -12.04648438 -0.32679688 -13.26171875 -0.52734375 C-14.16535156 -0.68332031 -15.06898438 -0.83929688 -16 -1 C-16 -1.33 -16 -1.66 -16 -2 C-9.525862 -3.27170568 -6.02341941 -2.68902652 0 0 Z " fill="#A9E5F0" transform="translate(153,283)"/>
<path d="M0 0 C0.33 0.99 0.66 1.98 1 3 C-1.97 5.475 -1.97 5.475 -5 8 C-5.66 7.67 -6.32 7.34 -7 7 C-4.69 4.69 -2.38 2.38 0 0 Z " fill="#6FC1D4" transform="translate(452,419)"/>
<path d="M0 0 C0.33 0 0.66 0 1 0 C1 3.3 1 6.6 1 10 C0.01 10.33 -0.98 10.66 -2 11 C-1.34 7.37 -0.68 3.74 0 0 Z " fill="#73C3D5" transform="translate(312,359)"/>
<path d="M0 0 C1.32 1.32 2.64 2.64 4 4 C3.01 4.495 3.01 4.495 2 5 C1.34 4.67 0.68 4.34 0 4 C0 5.65 0 7.3 0 9 C-0.66 9 -1.32 9 -2 9 C-1.34 6.03 -0.68 3.06 0 0 Z " fill="#C4F0F7" transform="translate(355,112)"/>
<path d="M0 0 C2.64 0 5.28 0 8 0 C4.55549263 2.29633824 2.06187717 2.54016485 -2 3 C-1.34 2.67 -0.68 2.34 0 2 C0 1.34 0 0.68 0 0 Z " fill="#71C3D5" transform="translate(187,599)"/>
<path d="M0 0 C1.5 1.375 1.5 1.375 3 3 C3 3.66 3 4.32 3 5 C-0.63 4.67 -4.26 4.34 -8 4 C-8 3.67 -8 3.34 -8 3 C-5.36 3 -2.72 3 0 3 C0 2.01 0 1.02 0 0 Z " fill="#BBEAF3" transform="translate(644,544)"/>
<path d="M0 0 C0.95465783 2.16967689 1.14401212 3.56328793 0.3984375 5.82421875 C-0.35870385 7.5684743 -1.17609198 9.28627131 -2 11 C-2.66 11 -3.32 11 -4 11 C-2.95902388 7.13351728 -1.96301592 3.50538557 0 0 Z " fill="#71C3D4" transform="translate(660,489)"/>
<path d="M0 0 C0.33 0.66 0.66 1.32 1 2 C3.32156597 2.40729228 5.6568787 2.74438677 8 3 C8 3.33 8 3.66 8 4 C4.37 4.33 0.74 4.66 -3 5 C-2.01 3.35 -1.02 1.7 0 0 Z " fill="#BDECF5" transform="translate(177,544)"/>
<path d="M0 0 C2.64 0 5.28 0 8 0 C8.33 0.99 8.66 1.98 9 3 C4.545 2.01 4.545 2.01 0 1 C0 0.67 0 0.34 0 0 Z " fill="#6DC1D2" transform="translate(115,387)"/>
<path d="M0 0 C1.65 0.33 3.3 0.66 5 1 C0.25 4.875 0.25 4.875 -2 6 C-1.34 4.02 -0.68 2.04 0 0 Z " fill="#C6EFF6" transform="translate(685,334)"/>
<path d="M0 0 C1.35015859 4.05047576 0.62084998 6.7920168 0 11 C-0.33 11 -0.66 11 -1 11 C-1.12375 9.865625 -1.2475 8.73125 -1.375 7.5625 C-1.58125 6.386875 -1.7875 5.21125 -2 4 C-2.66 3.67 -3.32 3.34 -4 3 C-2.68 2.01 -1.36 1.02 0 0 Z " fill="#BAEAF3" transform="translate(568,154)"/>
<path d="M0 0 C0.33 1.32 0.66 2.64 1 4 C-0.98 4.99 -0.98 4.99 -3 6 C-3 6.66 -3 7.32 -3 8 C-3.99 7.67 -4.98 7.34 -6 7 C-5.071875 6.6596875 -5.071875 6.6596875 -4.125 6.3125 C-1.38589791 4.62070165 -0.94975528 3.00755839 0 0 Z " fill="#D6F2F9" transform="translate(352,121)"/>
<path d="M0 0 C-1.39332574 3.36720387 -2.9789286 4.9859524 -6 7 C-5.37162381 3.35541809 -4.14650034 0 0 0 Z " fill="#5FBDD2" transform="translate(427,78)"/>
</svg>
